%TF.GenerationSoftware,KiCad,Pcbnew,9.0.7*%
%TF.CreationDate,2026-02-15T13:35:02-08:00*%
%TF.ProjectId,DisplayDevice,44697370-6c61-4794-9465-766963652e6b,rev?*%
%TF.SameCoordinates,Original*%
%TF.FileFunction,Legend,Top*%
%TF.FilePolarity,Positive*%
%FSLAX46Y46*%
G04 Gerber Fmt 4.6, Leading zero omitted, Abs format (unit mm)*
G04 Created by KiCad (PCBNEW 9.0.7) date 2026-02-15 13:35:02*
%MOMM*%
%LPD*%
G01*
G04 APERTURE LIST*
%ADD10C,0.300000*%
%ADD11C,0.100000*%
%ADD12C,0.150000*%
%ADD13C,0.127000*%
%ADD14C,0.200000*%
%ADD15C,0.120000*%
G04 APERTURE END LIST*
D10*
X96904510Y-105020996D02*
X96904510Y-103520996D01*
X96904510Y-103520996D02*
X97475939Y-103520996D01*
X97475939Y-103520996D02*
X97618796Y-103592425D01*
X97618796Y-103592425D02*
X97690225Y-103663853D01*
X97690225Y-103663853D02*
X97761653Y-103806710D01*
X97761653Y-103806710D02*
X97761653Y-104020996D01*
X97761653Y-104020996D02*
X97690225Y-104163853D01*
X97690225Y-104163853D02*
X97618796Y-104235282D01*
X97618796Y-104235282D02*
X97475939Y-104306710D01*
X97475939Y-104306710D02*
X96904510Y-104306710D01*
X98618796Y-105020996D02*
X98475939Y-104949568D01*
X98475939Y-104949568D02*
X98404510Y-104806710D01*
X98404510Y-104806710D02*
X98404510Y-103520996D01*
X99833082Y-105020996D02*
X99833082Y-104235282D01*
X99833082Y-104235282D02*
X99761653Y-104092425D01*
X99761653Y-104092425D02*
X99618796Y-104020996D01*
X99618796Y-104020996D02*
X99333082Y-104020996D01*
X99333082Y-104020996D02*
X99190224Y-104092425D01*
X99833082Y-104949568D02*
X99690224Y-105020996D01*
X99690224Y-105020996D02*
X99333082Y-105020996D01*
X99333082Y-105020996D02*
X99190224Y-104949568D01*
X99190224Y-104949568D02*
X99118796Y-104806710D01*
X99118796Y-104806710D02*
X99118796Y-104663853D01*
X99118796Y-104663853D02*
X99190224Y-104520996D01*
X99190224Y-104520996D02*
X99333082Y-104449568D01*
X99333082Y-104449568D02*
X99690224Y-104449568D01*
X99690224Y-104449568D02*
X99833082Y-104378139D01*
X100547367Y-104020996D02*
X100547367Y-105020996D01*
X100547367Y-104163853D02*
X100618796Y-104092425D01*
X100618796Y-104092425D02*
X100761653Y-104020996D01*
X100761653Y-104020996D02*
X100975939Y-104020996D01*
X100975939Y-104020996D02*
X101118796Y-104092425D01*
X101118796Y-104092425D02*
X101190225Y-104235282D01*
X101190225Y-104235282D02*
X101190225Y-105020996D01*
X101690225Y-104020996D02*
X102261653Y-104020996D01*
X101904510Y-103520996D02*
X101904510Y-104806710D01*
X101904510Y-104806710D02*
X101975939Y-104949568D01*
X101975939Y-104949568D02*
X102118796Y-105020996D01*
X102118796Y-105020996D02*
X102261653Y-105020996D01*
X102761653Y-105020996D02*
X102761653Y-103520996D01*
X102761653Y-103520996D02*
X103333082Y-103520996D01*
X103333082Y-103520996D02*
X103475939Y-103592425D01*
X103475939Y-103592425D02*
X103547368Y-103663853D01*
X103547368Y-103663853D02*
X103618796Y-103806710D01*
X103618796Y-103806710D02*
X103618796Y-104020996D01*
X103618796Y-104020996D02*
X103547368Y-104163853D01*
X103547368Y-104163853D02*
X103475939Y-104235282D01*
X103475939Y-104235282D02*
X103333082Y-104306710D01*
X103333082Y-104306710D02*
X102761653Y-104306710D01*
X104904511Y-104020996D02*
X104904511Y-105020996D01*
X104261653Y-104020996D02*
X104261653Y-104806710D01*
X104261653Y-104806710D02*
X104333082Y-104949568D01*
X104333082Y-104949568D02*
X104475939Y-105020996D01*
X104475939Y-105020996D02*
X104690225Y-105020996D01*
X104690225Y-105020996D02*
X104833082Y-104949568D01*
X104833082Y-104949568D02*
X104904511Y-104878139D01*
X105833082Y-105020996D02*
X105690225Y-104949568D01*
X105690225Y-104949568D02*
X105618796Y-104806710D01*
X105618796Y-104806710D02*
X105618796Y-103520996D01*
X106333082Y-104949568D02*
X106475939Y-105020996D01*
X106475939Y-105020996D02*
X106761653Y-105020996D01*
X106761653Y-105020996D02*
X106904510Y-104949568D01*
X106904510Y-104949568D02*
X106975939Y-104806710D01*
X106975939Y-104806710D02*
X106975939Y-104735282D01*
X106975939Y-104735282D02*
X106904510Y-104592425D01*
X106904510Y-104592425D02*
X106761653Y-104520996D01*
X106761653Y-104520996D02*
X106547368Y-104520996D01*
X106547368Y-104520996D02*
X106404510Y-104449568D01*
X106404510Y-104449568D02*
X106333082Y-104306710D01*
X106333082Y-104306710D02*
X106333082Y-104235282D01*
X106333082Y-104235282D02*
X106404510Y-104092425D01*
X106404510Y-104092425D02*
X106547368Y-104020996D01*
X106547368Y-104020996D02*
X106761653Y-104020996D01*
X106761653Y-104020996D02*
X106904510Y-104092425D01*
X108190225Y-104949568D02*
X108047368Y-105020996D01*
X108047368Y-105020996D02*
X107761654Y-105020996D01*
X107761654Y-105020996D02*
X107618796Y-104949568D01*
X107618796Y-104949568D02*
X107547368Y-104806710D01*
X107547368Y-104806710D02*
X107547368Y-104235282D01*
X107547368Y-104235282D02*
X107618796Y-104092425D01*
X107618796Y-104092425D02*
X107761654Y-104020996D01*
X107761654Y-104020996D02*
X108047368Y-104020996D01*
X108047368Y-104020996D02*
X108190225Y-104092425D01*
X108190225Y-104092425D02*
X108261654Y-104235282D01*
X108261654Y-104235282D02*
X108261654Y-104378139D01*
X108261654Y-104378139D02*
X107547368Y-104520996D01*
X96904510Y-106650198D02*
X97404510Y-106650198D01*
X97618796Y-107435912D02*
X96904510Y-107435912D01*
X96904510Y-107435912D02*
X96904510Y-105935912D01*
X96904510Y-105935912D02*
X97618796Y-105935912D01*
X98261653Y-107435912D02*
X98261653Y-106435912D01*
X98261653Y-106721626D02*
X98333082Y-106578769D01*
X98333082Y-106578769D02*
X98404511Y-106507341D01*
X98404511Y-106507341D02*
X98547368Y-106435912D01*
X98547368Y-106435912D02*
X98690225Y-106435912D01*
X99190224Y-107435912D02*
X99190224Y-106435912D01*
X99190224Y-105935912D02*
X99118796Y-106007341D01*
X99118796Y-106007341D02*
X99190224Y-106078769D01*
X99190224Y-106078769D02*
X99261653Y-106007341D01*
X99261653Y-106007341D02*
X99190224Y-105935912D01*
X99190224Y-105935912D02*
X99190224Y-106078769D01*
X100547368Y-107364484D02*
X100404510Y-107435912D01*
X100404510Y-107435912D02*
X100118796Y-107435912D01*
X100118796Y-107435912D02*
X99975939Y-107364484D01*
X99975939Y-107364484D02*
X99904510Y-107293055D01*
X99904510Y-107293055D02*
X99833082Y-107150198D01*
X99833082Y-107150198D02*
X99833082Y-106721626D01*
X99833082Y-106721626D02*
X99904510Y-106578769D01*
X99904510Y-106578769D02*
X99975939Y-106507341D01*
X99975939Y-106507341D02*
X100118796Y-106435912D01*
X100118796Y-106435912D02*
X100404510Y-106435912D01*
X100404510Y-106435912D02*
X100547368Y-106507341D01*
X96904510Y-109850828D02*
X96904510Y-108350828D01*
X96904510Y-108350828D02*
X97261653Y-108350828D01*
X97261653Y-108350828D02*
X97475939Y-108422257D01*
X97475939Y-108422257D02*
X97618796Y-108565114D01*
X97618796Y-108565114D02*
X97690225Y-108707971D01*
X97690225Y-108707971D02*
X97761653Y-108993685D01*
X97761653Y-108993685D02*
X97761653Y-109207971D01*
X97761653Y-109207971D02*
X97690225Y-109493685D01*
X97690225Y-109493685D02*
X97618796Y-109636542D01*
X97618796Y-109636542D02*
X97475939Y-109779400D01*
X97475939Y-109779400D02*
X97261653Y-109850828D01*
X97261653Y-109850828D02*
X96904510Y-109850828D01*
X98404510Y-109850828D02*
X98404510Y-108850828D01*
X98404510Y-108350828D02*
X98333082Y-108422257D01*
X98333082Y-108422257D02*
X98404510Y-108493685D01*
X98404510Y-108493685D02*
X98475939Y-108422257D01*
X98475939Y-108422257D02*
X98404510Y-108350828D01*
X98404510Y-108350828D02*
X98404510Y-108493685D01*
X99047368Y-109779400D02*
X99190225Y-109850828D01*
X99190225Y-109850828D02*
X99475939Y-109850828D01*
X99475939Y-109850828D02*
X99618796Y-109779400D01*
X99618796Y-109779400D02*
X99690225Y-109636542D01*
X99690225Y-109636542D02*
X99690225Y-109565114D01*
X99690225Y-109565114D02*
X99618796Y-109422257D01*
X99618796Y-109422257D02*
X99475939Y-109350828D01*
X99475939Y-109350828D02*
X99261654Y-109350828D01*
X99261654Y-109350828D02*
X99118796Y-109279400D01*
X99118796Y-109279400D02*
X99047368Y-109136542D01*
X99047368Y-109136542D02*
X99047368Y-109065114D01*
X99047368Y-109065114D02*
X99118796Y-108922257D01*
X99118796Y-108922257D02*
X99261654Y-108850828D01*
X99261654Y-108850828D02*
X99475939Y-108850828D01*
X99475939Y-108850828D02*
X99618796Y-108922257D01*
X100333082Y-108850828D02*
X100333082Y-110350828D01*
X100333082Y-108922257D02*
X100475940Y-108850828D01*
X100475940Y-108850828D02*
X100761654Y-108850828D01*
X100761654Y-108850828D02*
X100904511Y-108922257D01*
X100904511Y-108922257D02*
X100975940Y-108993685D01*
X100975940Y-108993685D02*
X101047368Y-109136542D01*
X101047368Y-109136542D02*
X101047368Y-109565114D01*
X101047368Y-109565114D02*
X100975940Y-109707971D01*
X100975940Y-109707971D02*
X100904511Y-109779400D01*
X100904511Y-109779400D02*
X100761654Y-109850828D01*
X100761654Y-109850828D02*
X100475940Y-109850828D01*
X100475940Y-109850828D02*
X100333082Y-109779400D01*
X101904511Y-109850828D02*
X101761654Y-109779400D01*
X101761654Y-109779400D02*
X101690225Y-109636542D01*
X101690225Y-109636542D02*
X101690225Y-108350828D01*
X103118797Y-109850828D02*
X103118797Y-109065114D01*
X103118797Y-109065114D02*
X103047368Y-108922257D01*
X103047368Y-108922257D02*
X102904511Y-108850828D01*
X102904511Y-108850828D02*
X102618797Y-108850828D01*
X102618797Y-108850828D02*
X102475939Y-108922257D01*
X103118797Y-109779400D02*
X102975939Y-109850828D01*
X102975939Y-109850828D02*
X102618797Y-109850828D01*
X102618797Y-109850828D02*
X102475939Y-109779400D01*
X102475939Y-109779400D02*
X102404511Y-109636542D01*
X102404511Y-109636542D02*
X102404511Y-109493685D01*
X102404511Y-109493685D02*
X102475939Y-109350828D01*
X102475939Y-109350828D02*
X102618797Y-109279400D01*
X102618797Y-109279400D02*
X102975939Y-109279400D01*
X102975939Y-109279400D02*
X103118797Y-109207971D01*
X103690225Y-108850828D02*
X104047368Y-109850828D01*
X104404511Y-108850828D02*
X104047368Y-109850828D01*
X104047368Y-109850828D02*
X103904511Y-110207971D01*
X103904511Y-110207971D02*
X103833082Y-110279400D01*
X103833082Y-110279400D02*
X103690225Y-110350828D01*
X104975939Y-109850828D02*
X104975939Y-108350828D01*
X104975939Y-108350828D02*
X105333082Y-108350828D01*
X105333082Y-108350828D02*
X105547368Y-108422257D01*
X105547368Y-108422257D02*
X105690225Y-108565114D01*
X105690225Y-108565114D02*
X105761654Y-108707971D01*
X105761654Y-108707971D02*
X105833082Y-108993685D01*
X105833082Y-108993685D02*
X105833082Y-109207971D01*
X105833082Y-109207971D02*
X105761654Y-109493685D01*
X105761654Y-109493685D02*
X105690225Y-109636542D01*
X105690225Y-109636542D02*
X105547368Y-109779400D01*
X105547368Y-109779400D02*
X105333082Y-109850828D01*
X105333082Y-109850828D02*
X104975939Y-109850828D01*
X107047368Y-109779400D02*
X106904511Y-109850828D01*
X106904511Y-109850828D02*
X106618797Y-109850828D01*
X106618797Y-109850828D02*
X106475939Y-109779400D01*
X106475939Y-109779400D02*
X106404511Y-109636542D01*
X106404511Y-109636542D02*
X106404511Y-109065114D01*
X106404511Y-109065114D02*
X106475939Y-108922257D01*
X106475939Y-108922257D02*
X106618797Y-108850828D01*
X106618797Y-108850828D02*
X106904511Y-108850828D01*
X106904511Y-108850828D02*
X107047368Y-108922257D01*
X107047368Y-108922257D02*
X107118797Y-109065114D01*
X107118797Y-109065114D02*
X107118797Y-109207971D01*
X107118797Y-109207971D02*
X106404511Y-109350828D01*
X107618796Y-108850828D02*
X107975939Y-109850828D01*
X107975939Y-109850828D02*
X108333082Y-108850828D01*
X108904510Y-109850828D02*
X108904510Y-108850828D01*
X108904510Y-108350828D02*
X108833082Y-108422257D01*
X108833082Y-108422257D02*
X108904510Y-108493685D01*
X108904510Y-108493685D02*
X108975939Y-108422257D01*
X108975939Y-108422257D02*
X108904510Y-108350828D01*
X108904510Y-108350828D02*
X108904510Y-108493685D01*
X110261654Y-109779400D02*
X110118796Y-109850828D01*
X110118796Y-109850828D02*
X109833082Y-109850828D01*
X109833082Y-109850828D02*
X109690225Y-109779400D01*
X109690225Y-109779400D02*
X109618796Y-109707971D01*
X109618796Y-109707971D02*
X109547368Y-109565114D01*
X109547368Y-109565114D02*
X109547368Y-109136542D01*
X109547368Y-109136542D02*
X109618796Y-108993685D01*
X109618796Y-108993685D02*
X109690225Y-108922257D01*
X109690225Y-108922257D02*
X109833082Y-108850828D01*
X109833082Y-108850828D02*
X110118796Y-108850828D01*
X110118796Y-108850828D02*
X110261654Y-108922257D01*
X111475939Y-109779400D02*
X111333082Y-109850828D01*
X111333082Y-109850828D02*
X111047368Y-109850828D01*
X111047368Y-109850828D02*
X110904510Y-109779400D01*
X110904510Y-109779400D02*
X110833082Y-109636542D01*
X110833082Y-109636542D02*
X110833082Y-109065114D01*
X110833082Y-109065114D02*
X110904510Y-108922257D01*
X110904510Y-108922257D02*
X111047368Y-108850828D01*
X111047368Y-108850828D02*
X111333082Y-108850828D01*
X111333082Y-108850828D02*
X111475939Y-108922257D01*
X111475939Y-108922257D02*
X111547368Y-109065114D01*
X111547368Y-109065114D02*
X111547368Y-109207971D01*
X111547368Y-109207971D02*
X110833082Y-109350828D01*
D11*
X163708095Y-53357419D02*
X163708095Y-54166942D01*
X163708095Y-54166942D02*
X163755714Y-54262180D01*
X163755714Y-54262180D02*
X163803333Y-54309800D01*
X163803333Y-54309800D02*
X163898571Y-54357419D01*
X163898571Y-54357419D02*
X164089047Y-54357419D01*
X164089047Y-54357419D02*
X164184285Y-54309800D01*
X164184285Y-54309800D02*
X164231904Y-54262180D01*
X164231904Y-54262180D02*
X164279523Y-54166942D01*
X164279523Y-54166942D02*
X164279523Y-53357419D01*
X165279523Y-54357419D02*
X164708095Y-54357419D01*
X164993809Y-54357419D02*
X164993809Y-53357419D01*
X164993809Y-53357419D02*
X164898571Y-53500276D01*
X164898571Y-53500276D02*
X164803333Y-53595514D01*
X164803333Y-53595514D02*
X164708095Y-53643133D01*
D12*
X188413095Y-86792200D02*
X188555952Y-86839819D01*
X188555952Y-86839819D02*
X188794047Y-86839819D01*
X188794047Y-86839819D02*
X188889285Y-86792200D01*
X188889285Y-86792200D02*
X188936904Y-86744580D01*
X188936904Y-86744580D02*
X188984523Y-86649342D01*
X188984523Y-86649342D02*
X188984523Y-86554104D01*
X188984523Y-86554104D02*
X188936904Y-86458866D01*
X188936904Y-86458866D02*
X188889285Y-86411247D01*
X188889285Y-86411247D02*
X188794047Y-86363628D01*
X188794047Y-86363628D02*
X188603571Y-86316009D01*
X188603571Y-86316009D02*
X188508333Y-86268390D01*
X188508333Y-86268390D02*
X188460714Y-86220771D01*
X188460714Y-86220771D02*
X188413095Y-86125533D01*
X188413095Y-86125533D02*
X188413095Y-86030295D01*
X188413095Y-86030295D02*
X188460714Y-85935057D01*
X188460714Y-85935057D02*
X188508333Y-85887438D01*
X188508333Y-85887438D02*
X188603571Y-85839819D01*
X188603571Y-85839819D02*
X188841666Y-85839819D01*
X188841666Y-85839819D02*
X188984523Y-85887438D01*
X189936904Y-86839819D02*
X189365476Y-86839819D01*
X189651190Y-86839819D02*
X189651190Y-85839819D01*
X189651190Y-85839819D02*
X189555952Y-85982676D01*
X189555952Y-85982676D02*
X189460714Y-86077914D01*
X189460714Y-86077914D02*
X189365476Y-86125533D01*
X133383333Y-84204819D02*
X133050000Y-83728628D01*
X132811905Y-84204819D02*
X132811905Y-83204819D01*
X132811905Y-83204819D02*
X133192857Y-83204819D01*
X133192857Y-83204819D02*
X133288095Y-83252438D01*
X133288095Y-83252438D02*
X133335714Y-83300057D01*
X133335714Y-83300057D02*
X133383333Y-83395295D01*
X133383333Y-83395295D02*
X133383333Y-83538152D01*
X133383333Y-83538152D02*
X133335714Y-83633390D01*
X133335714Y-83633390D02*
X133288095Y-83681009D01*
X133288095Y-83681009D02*
X133192857Y-83728628D01*
X133192857Y-83728628D02*
X132811905Y-83728628D01*
X134240476Y-83538152D02*
X134240476Y-84204819D01*
X134002381Y-83157200D02*
X133764286Y-83871485D01*
X133764286Y-83871485D02*
X134383333Y-83871485D01*
X131920833Y-77804819D02*
X131587500Y-77328628D01*
X131349405Y-77804819D02*
X131349405Y-76804819D01*
X131349405Y-76804819D02*
X131730357Y-76804819D01*
X131730357Y-76804819D02*
X131825595Y-76852438D01*
X131825595Y-76852438D02*
X131873214Y-76900057D01*
X131873214Y-76900057D02*
X131920833Y-76995295D01*
X131920833Y-76995295D02*
X131920833Y-77138152D01*
X131920833Y-77138152D02*
X131873214Y-77233390D01*
X131873214Y-77233390D02*
X131825595Y-77281009D01*
X131825595Y-77281009D02*
X131730357Y-77328628D01*
X131730357Y-77328628D02*
X131349405Y-77328628D01*
X132254167Y-76804819D02*
X132873214Y-76804819D01*
X132873214Y-76804819D02*
X132539881Y-77185771D01*
X132539881Y-77185771D02*
X132682738Y-77185771D01*
X132682738Y-77185771D02*
X132777976Y-77233390D01*
X132777976Y-77233390D02*
X132825595Y-77281009D01*
X132825595Y-77281009D02*
X132873214Y-77376247D01*
X132873214Y-77376247D02*
X132873214Y-77614342D01*
X132873214Y-77614342D02*
X132825595Y-77709580D01*
X132825595Y-77709580D02*
X132777976Y-77757200D01*
X132777976Y-77757200D02*
X132682738Y-77804819D01*
X132682738Y-77804819D02*
X132397024Y-77804819D01*
X132397024Y-77804819D02*
X132301786Y-77757200D01*
X132301786Y-77757200D02*
X132254167Y-77709580D01*
X132120833Y-69904819D02*
X131787500Y-69428628D01*
X131549405Y-69904819D02*
X131549405Y-68904819D01*
X131549405Y-68904819D02*
X131930357Y-68904819D01*
X131930357Y-68904819D02*
X132025595Y-68952438D01*
X132025595Y-68952438D02*
X132073214Y-69000057D01*
X132073214Y-69000057D02*
X132120833Y-69095295D01*
X132120833Y-69095295D02*
X132120833Y-69238152D01*
X132120833Y-69238152D02*
X132073214Y-69333390D01*
X132073214Y-69333390D02*
X132025595Y-69381009D01*
X132025595Y-69381009D02*
X131930357Y-69428628D01*
X131930357Y-69428628D02*
X131549405Y-69428628D01*
X132501786Y-69000057D02*
X132549405Y-68952438D01*
X132549405Y-68952438D02*
X132644643Y-68904819D01*
X132644643Y-68904819D02*
X132882738Y-68904819D01*
X132882738Y-68904819D02*
X132977976Y-68952438D01*
X132977976Y-68952438D02*
X133025595Y-69000057D01*
X133025595Y-69000057D02*
X133073214Y-69095295D01*
X133073214Y-69095295D02*
X133073214Y-69190533D01*
X133073214Y-69190533D02*
X133025595Y-69333390D01*
X133025595Y-69333390D02*
X132454167Y-69904819D01*
X132454167Y-69904819D02*
X133073214Y-69904819D01*
X132033333Y-62754819D02*
X131700000Y-62278628D01*
X131461905Y-62754819D02*
X131461905Y-61754819D01*
X131461905Y-61754819D02*
X131842857Y-61754819D01*
X131842857Y-61754819D02*
X131938095Y-61802438D01*
X131938095Y-61802438D02*
X131985714Y-61850057D01*
X131985714Y-61850057D02*
X132033333Y-61945295D01*
X132033333Y-61945295D02*
X132033333Y-62088152D01*
X132033333Y-62088152D02*
X131985714Y-62183390D01*
X131985714Y-62183390D02*
X131938095Y-62231009D01*
X131938095Y-62231009D02*
X131842857Y-62278628D01*
X131842857Y-62278628D02*
X131461905Y-62278628D01*
X132985714Y-62754819D02*
X132414286Y-62754819D01*
X132700000Y-62754819D02*
X132700000Y-61754819D01*
X132700000Y-61754819D02*
X132604762Y-61897676D01*
X132604762Y-61897676D02*
X132509524Y-61992914D01*
X132509524Y-61992914D02*
X132414286Y-62040533D01*
D11*
X74407419Y-76579523D02*
X73407419Y-76579523D01*
X73407419Y-76579523D02*
X74121704Y-76246190D01*
X74121704Y-76246190D02*
X73407419Y-75912857D01*
X73407419Y-75912857D02*
X74407419Y-75912857D01*
X74407419Y-74912857D02*
X74407419Y-75484285D01*
X74407419Y-75198571D02*
X73407419Y-75198571D01*
X73407419Y-75198571D02*
X73550276Y-75293809D01*
X73550276Y-75293809D02*
X73645514Y-75389047D01*
X73645514Y-75389047D02*
X73693133Y-75484285D01*
D12*
X179366666Y-67274819D02*
X179366666Y-67989104D01*
X179366666Y-67989104D02*
X179319047Y-68131961D01*
X179319047Y-68131961D02*
X179223809Y-68227200D01*
X179223809Y-68227200D02*
X179080952Y-68274819D01*
X179080952Y-68274819D02*
X178985714Y-68274819D01*
X179795238Y-67370057D02*
X179842857Y-67322438D01*
X179842857Y-67322438D02*
X179938095Y-67274819D01*
X179938095Y-67274819D02*
X180176190Y-67274819D01*
X180176190Y-67274819D02*
X180271428Y-67322438D01*
X180271428Y-67322438D02*
X180319047Y-67370057D01*
X180319047Y-67370057D02*
X180366666Y-67465295D01*
X180366666Y-67465295D02*
X180366666Y-67560533D01*
X180366666Y-67560533D02*
X180319047Y-67703390D01*
X180319047Y-67703390D02*
X179747619Y-68274819D01*
X179747619Y-68274819D02*
X180366666Y-68274819D01*
X162166666Y-108408819D02*
X162166666Y-109123104D01*
X162166666Y-109123104D02*
X162119047Y-109265961D01*
X162119047Y-109265961D02*
X162023809Y-109361200D01*
X162023809Y-109361200D02*
X161880952Y-109408819D01*
X161880952Y-109408819D02*
X161785714Y-109408819D01*
X163166666Y-109408819D02*
X162595238Y-109408819D01*
X162880952Y-109408819D02*
X162880952Y-108408819D01*
X162880952Y-108408819D02*
X162785714Y-108551676D01*
X162785714Y-108551676D02*
X162690476Y-108646914D01*
X162690476Y-108646914D02*
X162595238Y-108694533D01*
X199861905Y-74954819D02*
X199861905Y-73954819D01*
X199861905Y-73954819D02*
X200100000Y-73954819D01*
X200100000Y-73954819D02*
X200242857Y-74002438D01*
X200242857Y-74002438D02*
X200338095Y-74097676D01*
X200338095Y-74097676D02*
X200385714Y-74192914D01*
X200385714Y-74192914D02*
X200433333Y-74383390D01*
X200433333Y-74383390D02*
X200433333Y-74526247D01*
X200433333Y-74526247D02*
X200385714Y-74716723D01*
X200385714Y-74716723D02*
X200338095Y-74811961D01*
X200338095Y-74811961D02*
X200242857Y-74907200D01*
X200242857Y-74907200D02*
X200100000Y-74954819D01*
X200100000Y-74954819D02*
X199861905Y-74954819D01*
X201385714Y-74954819D02*
X200814286Y-74954819D01*
X201100000Y-74954819D02*
X201100000Y-73954819D01*
X201100000Y-73954819D02*
X201004762Y-74097676D01*
X201004762Y-74097676D02*
X200909524Y-74192914D01*
X200909524Y-74192914D02*
X200814286Y-74240533D01*
X204371428Y-72237704D02*
X204828571Y-72237704D01*
X204599999Y-72237704D02*
X204599999Y-73037704D01*
X204599999Y-73037704D02*
X204676190Y-72923419D01*
X204676190Y-72923419D02*
X204752380Y-72847228D01*
X204752380Y-72847228D02*
X204828571Y-72809133D01*
D11*
%TO.C,U1*%
X159390000Y-57940000D02*
X159390000Y-61750000D01*
X159390000Y-61750000D02*
X167010000Y-61750000D01*
X164216000Y-84356000D02*
X167264000Y-84356000D01*
X164216000Y-87404000D02*
X164216000Y-84356000D01*
X164724000Y-87912000D02*
X166756000Y-87912000D01*
X165232000Y-88420000D02*
X166248000Y-88420000D01*
X167010000Y-61750000D02*
X167010000Y-57940000D01*
X167264000Y-84356000D02*
X167264000Y-87404000D01*
X167264000Y-87404000D02*
X164216000Y-87404000D01*
D13*
%TO.C,S1*%
X186100000Y-80200000D02*
X190600000Y-80200000D01*
X186100000Y-85300000D02*
X190600000Y-85300000D01*
D14*
X192700000Y-84625000D02*
G75*
G02*
X192500000Y-84625000I-100000J0D01*
G01*
X192500000Y-84625000D02*
G75*
G02*
X192700000Y-84625000I100000J0D01*
G01*
D13*
X190900000Y-83930000D02*
X190900000Y-81570000D01*
X185800000Y-81570000D02*
X185800000Y-83930000D01*
D15*
%TO.C,R4*%
X133777064Y-82835000D02*
X133322936Y-82835000D01*
X133777064Y-81365000D02*
X133322936Y-81365000D01*
%TO.C,R3*%
X132314564Y-76435000D02*
X131860436Y-76435000D01*
X132314564Y-74965000D02*
X131860436Y-74965000D01*
%TO.C,R2*%
X132514564Y-68535000D02*
X132060436Y-68535000D01*
X132514564Y-67065000D02*
X132060436Y-67065000D01*
%TO.C,R1*%
X132427064Y-61385000D02*
X131972936Y-61385000D01*
X132427064Y-59915000D02*
X131972936Y-59915000D01*
%TO.C,J2*%
X181080000Y-66820000D02*
X179700000Y-66820000D01*
X181080000Y-65440000D02*
X181080000Y-66820000D01*
X181080000Y-64170000D02*
X181080000Y-61520000D01*
X181080000Y-64170000D02*
X178320000Y-64170000D01*
X181080000Y-61520000D02*
X178320000Y-61520000D01*
X178320000Y-64170000D02*
X178320000Y-61520000D01*
%TO.C,J1*%
X149100000Y-96400000D02*
X176500000Y-96400000D01*
X176500000Y-96400000D02*
X176500000Y-123700000D01*
X176500000Y-123700000D02*
X149100000Y-123700000D01*
X149100000Y-123700000D02*
X149100000Y-96400000D01*
X172622000Y-116295000D02*
X149522000Y-116295000D01*
X149522000Y-116295000D02*
X149522000Y-99695000D01*
X149522000Y-99695000D02*
X172622000Y-99695000D01*
X157801000Y-96889000D02*
X167580000Y-96889000D01*
X167580000Y-96889000D02*
X167580000Y-99302000D01*
X167580000Y-99302000D02*
X157801000Y-99302000D01*
X157801000Y-96889000D02*
X157801000Y-99302000D01*
X172622000Y-99695000D02*
X175708000Y-99695000D01*
X172622000Y-116295000D02*
X175962000Y-116320000D01*
X175962000Y-116320000D02*
X175962000Y-99683000D01*
X175962000Y-99683000D02*
X175708000Y-99695000D01*
%TO.C,D1*%
X204100000Y-73750000D02*
X204100000Y-68250000D01*
X204100000Y-73750000D02*
X197100000Y-73750000D01*
X204100000Y-68250000D02*
X197550000Y-68250000D01*
X203300000Y-70100000D02*
X203300000Y-71900000D01*
X197900000Y-70100000D02*
X197900000Y-71900000D01*
X197550000Y-68250000D02*
X197100000Y-68700000D01*
X197100000Y-68700000D02*
X197100000Y-73750000D01*
%TD*%
M02*
