%TF.GenerationSoftware,KiCad,Pcbnew,9.0.7*%
%TF.CreationDate,2026-02-01T17:27:13-08:00*%
%TF.ProjectId,DisplayDevice,44697370-6c61-4794-9465-766963652e6b,rev?*%
%TF.SameCoordinates,Original*%
%TF.FileFunction,Soldermask,Top*%
%TF.FilePolarity,Negative*%
%FSLAX46Y46*%
G04 Gerber Fmt 4.6, Leading zero omitted, Abs format (unit mm)*
G04 Created by KiCad (PCBNEW 9.0.7) date 2026-02-01 17:27:13*
%MOMM*%
%LPD*%
G01*
G04 APERTURE LIST*
G04 Aperture macros list*
%AMRoundRect*
0 Rectangle with rounded corners*
0 $1 Rounding radius*
0 $2 $3 $4 $5 $6 $7 $8 $9 X,Y pos of 4 corners*
0 Add a 4 corners polygon primitive as box body*
4,1,4,$2,$3,$4,$5,$6,$7,$8,$9,$2,$3,0*
0 Add four circle primitives for the rounded corners*
1,1,$1+$1,$2,$3*
1,1,$1+$1,$4,$5*
1,1,$1+$1,$6,$7*
1,1,$1+$1,$8,$9*
0 Add four rect primitives between the rounded corners*
20,1,$1+$1,$2,$3,$4,$5,0*
20,1,$1+$1,$4,$5,$6,$7,0*
20,1,$1+$1,$6,$7,$8,$9,0*
20,1,$1+$1,$8,$9,$2,$3,0*%
G04 Aperture macros list end*
%ADD10O,1.600000X2.000000*%
%ADD11O,1.699999X0.349999*%
%ADD12C,0.499999*%
%ADD13R,2.460000X2.310000*%
%ADD14RoundRect,0.250000X0.250000X0.475000X-0.250000X0.475000X-0.250000X-0.475000X0.250000X-0.475000X0*%
%ADD15RoundRect,0.090000X0.660000X0.360000X-0.660000X0.360000X-0.660000X-0.360000X0.660000X-0.360000X0*%
%ADD16RoundRect,0.250000X0.450000X-0.262500X0.450000X0.262500X-0.450000X0.262500X-0.450000X-0.262500X0*%
%ADD17RoundRect,0.102000X-0.500000X-0.375000X0.500000X-0.375000X0.500000X0.375000X-0.500000X0.375000X0*%
%ADD18C,1.905000*%
%ADD19O,3.556000X1.778000*%
%ADD20C,1.700000*%
G04 APERTURE END LIST*
D10*
%TO.C,J1*%
X161880000Y-107150000D03*
X164420000Y-107150000D03*
X166960000Y-107150000D03*
X169500000Y-107150000D03*
%TD*%
D11*
%TO.C,Uw1*%
X129050002Y-79324998D03*
X129050002Y-79974999D03*
X129050002Y-80624998D03*
X129050002Y-81274999D03*
X129050002Y-81924998D03*
X129050002Y-82574999D03*
X129050002Y-83224998D03*
X129050002Y-83874999D03*
X134750001Y-83874999D03*
X134750001Y-83224998D03*
X134750001Y-82574999D03*
X134750001Y-81924998D03*
X134750001Y-81274999D03*
X134750001Y-80624998D03*
X134750001Y-79974999D03*
X134750001Y-79324998D03*
D12*
X131199998Y-81600000D03*
X131899999Y-80899999D03*
D13*
X131899999Y-81600000D03*
D12*
X131899999Y-82300001D03*
X132600000Y-81600000D03*
%TD*%
D14*
%TO.C,C3*%
X132750000Y-88400000D03*
X130850000Y-88400000D03*
%TD*%
D15*
%TO.C,D1*%
X186650000Y-84050000D03*
X186650000Y-80750000D03*
X181750000Y-80750000D03*
X181750000Y-84050000D03*
%TD*%
D16*
%TO.C,R1*%
X134400000Y-75512500D03*
X134400000Y-73687500D03*
%TD*%
D14*
%TO.C,C2*%
X132750000Y-103800000D03*
X130850000Y-103800000D03*
%TD*%
D17*
%TO.C,S1*%
X187400000Y-98125000D03*
X193400000Y-98125000D03*
X187400000Y-101875000D03*
X193400000Y-101875000D03*
%TD*%
D14*
%TO.C,C1*%
X132750000Y-94800000D03*
X130850000Y-94800000D03*
%TD*%
D18*
%TO.C,U1*%
X168740000Y-101780000D03*
X163660000Y-101780000D03*
D19*
X174582000Y-76380000D03*
X174582000Y-78920000D03*
X174582000Y-81460000D03*
X174582000Y-84000000D03*
X174582000Y-86540000D03*
X174582000Y-89080000D03*
X174582000Y-91620000D03*
X157818000Y-91620000D03*
X157818000Y-89080000D03*
X157818000Y-86540000D03*
X157818000Y-84000000D03*
X157818000Y-81460000D03*
X157818000Y-78920000D03*
X157818000Y-76380000D03*
%TD*%
D20*
%TO.C,M1*%
X92770000Y-98790000D03*
X92770000Y-106410000D03*
X115630000Y-98790000D03*
X115630000Y-106410000D03*
%TD*%
M02*
