M48
; DRILL file {KiCad 9.0.7} date 2026-02-15T13:35:06-0800
; FORMAT={-:-/ absolute / metric / decimal}
; #@! TF.CreationDate,2026-02-15T13:35:06-08:00
; #@! TF.GenerationSoftware,Kicad,Pcbnew,9.0.7
; #@! TF.FileFunction,Plated,1,2,PTH
FMAT,2
METRIC
; #@! TA.AperFunction,Plated,PTH,ComponentDrill
T1C0.850
; #@! TA.AperFunction,Plated,PTH,ComponentDrill
T2C1.000
; #@! TA.AperFunction,Plated,PTH,ComponentDrill
T3C1.016
%
G90
G05
T1
X89.19Y-63.07
X89.19Y-85.93
X96.81Y-63.07
X96.81Y-85.93
T2
X158.88Y-98.1
X161.42Y-98.1
X163.96Y-98.1
X166.5Y-98.1
X179.7Y-62.9
X179.7Y-65.44
T3
X155.58Y-60.48
X155.58Y-63.02
X155.58Y-65.56
X155.58Y-68.1
X155.58Y-70.64
X155.58Y-73.18
X155.58Y-75.72
X160.66Y-85.88
X165.74Y-85.88
X170.82Y-60.48
X170.82Y-63.02
X170.82Y-65.56
X170.82Y-68.1
X170.82Y-70.64
X170.82Y-73.18
X170.82Y-75.72
M30
