%TF.GenerationSoftware,KiCad,Pcbnew,9.0.7*%
%TF.CreationDate,2026-02-01T17:27:12-08:00*%
%TF.ProjectId,DisplayDevice,44697370-6c61-4794-9465-766963652e6b,rev?*%
%TF.SameCoordinates,Original*%
%TF.FileFunction,Copper,L2,Bot*%
%TF.FilePolarity,Positive*%
%FSLAX46Y46*%
G04 Gerber Fmt 4.6, Leading zero omitted, Abs format (unit mm)*
G04 Created by KiCad (PCBNEW 9.0.7) date 2026-02-01 17:27:12*
%MOMM*%
%LPD*%
G01*
G04 APERTURE LIST*
%TA.AperFunction,ComponentPad*%
%ADD10O,1.600000X2.000000*%
%TD*%
%TA.AperFunction,ComponentPad*%
%ADD11C,0.499999*%
%TD*%
%TA.AperFunction,ComponentPad*%
%ADD12C,1.905000*%
%TD*%
%TA.AperFunction,ComponentPad*%
%ADD13O,3.556000X1.778000*%
%TD*%
%TA.AperFunction,ComponentPad*%
%ADD14C,1.700000*%
%TD*%
%TA.AperFunction,ViaPad*%
%ADD15C,0.600000*%
%TD*%
%TA.AperFunction,Conductor*%
%ADD16C,0.200000*%
%TD*%
G04 APERTURE END LIST*
D10*
%TO.P,J1,1,GND*%
%TO.N,/GND*%
X161880000Y-107150000D03*
%TO.P,J1,2,VCC*%
%TO.N,/3V3*%
X164420000Y-107150000D03*
%TO.P,J1,3,SCL*%
%TO.N,Net-(J1-SCL)*%
X166960000Y-107150000D03*
%TO.P,J1,4,SDA*%
%TO.N,Net-(J1-SDA)*%
X169500000Y-107150000D03*
%TD*%
D11*
%TO.P,Uw1,17,PPAD*%
%TO.N,/GND*%
X131199998Y-81600000D03*
X131899999Y-80899999D03*
X131899999Y-82300001D03*
X132600000Y-81600000D03*
%TD*%
D12*
%TO.P,U1,16,-BATT*%
%TO.N,unconnected-(U1--BATT-Pad16)*%
X168740000Y-101780000D03*
%TO.P,U1,15,+BATT*%
%TO.N,unconnected-(U1-+BATT-Pad15)*%
X163660000Y-101780000D03*
D13*
%TO.P,U1,14,5V*%
%TO.N,/5V*%
X174582000Y-76380000D03*
%TO.P,U1,13,GND*%
%TO.N,/GND*%
X174582000Y-78920000D03*
%TO.P,U1,12,3V3*%
%TO.N,/3V3*%
X174582000Y-81460000D03*
%TO.P,U1,11,GPIO9_A10_D10_COPI*%
%TO.N,Net-(D1-DIN)*%
X174582000Y-84000000D03*
%TO.P,U1,10,GPIO8_A9_D9_CIPO*%
%TO.N,Net-(U1-GPIO8_A9_D9_CIPO)*%
X174582000Y-86540000D03*
%TO.P,U1,9,GPIO7_A8_D8_SCK*%
%TO.N,unconnected-(U1-GPIO7_A8_D8_SCK-Pad9)*%
X174582000Y-89080000D03*
%TO.P,U1,8,GPIO44_D7_RX*%
%TO.N,Net-(U1-GPIO44_D7_RX)*%
X174582000Y-91620000D03*
%TO.P,U1,7,GPIO43_TX_D6*%
%TO.N,unconnected-(U1-GPIO43_TX_D6-Pad7)*%
X157818000Y-91620000D03*
%TO.P,U1,6,GPIO6_A5_D5_SCL*%
%TO.N,Net-(J1-SCL)*%
X157818000Y-89080000D03*
%TO.P,U1,5,GPIO4_A3_D3_SDA*%
%TO.N,Net-(J1-SDA)*%
X157818000Y-86540000D03*
%TO.P,U1,4,GPIO4_A3_D3*%
%TO.N,Net-(U1-GPIO4_A3_D3)*%
X157818000Y-84000000D03*
%TO.P,U1,3,GPIO3_A2_D2*%
%TO.N,Net-(U1-GPIO3_A2_D2)*%
X157818000Y-81460000D03*
%TO.P,U1,2,GPIO2_A1_D1*%
%TO.N,Net-(U1-GPIO2_A1_D1)*%
X157818000Y-78920000D03*
%TO.P,U1,1,GPIO1_A0_D0*%
%TO.N,Net-(U1-GPIO1_A0_D0)*%
X157818000Y-76380000D03*
%TD*%
D14*
%TO.P,M1,1,Pin_1*%
%TO.N,Net-(M1-Pin_1)*%
X92770000Y-98790000D03*
%TO.P,M1,2,Pin_2*%
%TO.N,Net-(M1-Pin_2)*%
X92770000Y-106410000D03*
%TO.P,M1,3,Pin_3*%
%TO.N,Net-(M1-Pin_3)*%
X115630000Y-98790000D03*
%TO.P,M1,4,Pin_4*%
%TO.N,Net-(M1-Pin_4)*%
X115630000Y-106410000D03*
%TD*%
D15*
%TO.N,/GND*%
X139451473Y-80574999D03*
X125439152Y-83339152D03*
%TO.N,/5V*%
X140300000Y-80574999D03*
%TD*%
D16*
%TO.N,/GND*%
X150826934Y-83339152D02*
X154056086Y-80110000D01*
X140548943Y-81175999D02*
X141524942Y-80200000D01*
X172630000Y-80110000D02*
X173820000Y-78920000D01*
X141524942Y-80200000D02*
X172540000Y-80200000D01*
X172540000Y-80200000D02*
X173820000Y-78920000D01*
X154056086Y-80110000D02*
X172630000Y-80110000D01*
X140052473Y-81175999D02*
X140548943Y-81175999D01*
X125439152Y-83339152D02*
X150826934Y-83339152D01*
X139451473Y-80574999D02*
X140052473Y-81175999D01*
%TO.N,/5V*%
X172470000Y-77730000D02*
X173820000Y-76380000D01*
X140300000Y-80574999D02*
X143144999Y-77730000D01*
X143144999Y-77730000D02*
X172470000Y-77730000D01*
%TD*%
M02*
