%TF.GenerationSoftware,KiCad,Pcbnew,9.0.7*%
%TF.CreationDate,2026-01-25T21:22:40-08:00*%
%TF.ProjectId,pcb_design_lab,7063625f-6465-4736-9967-6e5f6c61622e,rev?*%
%TF.SameCoordinates,Original*%
%TF.FileFunction,Legend,Top*%
%TF.FilePolarity,Positive*%
%FSLAX46Y46*%
G04 Gerber Fmt 4.6, Leading zero omitted, Abs format (unit mm)*
G04 Created by KiCad (PCBNEW 9.0.7) date 2026-01-25 21:22:40*
%MOMM*%
%LPD*%
G01*
G04 APERTURE LIST*
%ADD10C,0.150000*%
%ADD11C,0.120000*%
%ADD12C,0.100000*%
G04 APERTURE END LIST*
D10*
X122199580Y-86166666D02*
X122247200Y-86214285D01*
X122247200Y-86214285D02*
X122294819Y-86357142D01*
X122294819Y-86357142D02*
X122294819Y-86452380D01*
X122294819Y-86452380D02*
X122247200Y-86595237D01*
X122247200Y-86595237D02*
X122151961Y-86690475D01*
X122151961Y-86690475D02*
X122056723Y-86738094D01*
X122056723Y-86738094D02*
X121866247Y-86785713D01*
X121866247Y-86785713D02*
X121723390Y-86785713D01*
X121723390Y-86785713D02*
X121532914Y-86738094D01*
X121532914Y-86738094D02*
X121437676Y-86690475D01*
X121437676Y-86690475D02*
X121342438Y-86595237D01*
X121342438Y-86595237D02*
X121294819Y-86452380D01*
X121294819Y-86452380D02*
X121294819Y-86357142D01*
X121294819Y-86357142D02*
X121342438Y-86214285D01*
X121342438Y-86214285D02*
X121390057Y-86166666D01*
X121628152Y-85309523D02*
X122294819Y-85309523D01*
X121247200Y-85547618D02*
X121961485Y-85785713D01*
X121961485Y-85785713D02*
X121961485Y-85166666D01*
X120738095Y-78504819D02*
X120738095Y-79314342D01*
X120738095Y-79314342D02*
X120785714Y-79409580D01*
X120785714Y-79409580D02*
X120833333Y-79457200D01*
X120833333Y-79457200D02*
X120928571Y-79504819D01*
X120928571Y-79504819D02*
X121119047Y-79504819D01*
X121119047Y-79504819D02*
X121214285Y-79457200D01*
X121214285Y-79457200D02*
X121261904Y-79409580D01*
X121261904Y-79409580D02*
X121309523Y-79314342D01*
X121309523Y-79314342D02*
X121309523Y-78504819D01*
X122309523Y-79504819D02*
X121738095Y-79504819D01*
X122023809Y-79504819D02*
X122023809Y-78504819D01*
X122023809Y-78504819D02*
X121928571Y-78647676D01*
X121928571Y-78647676D02*
X121833333Y-78742914D01*
X121833333Y-78742914D02*
X121738095Y-78790533D01*
X125489819Y-67746904D02*
X126299342Y-67746904D01*
X126299342Y-67746904D02*
X126394580Y-67699285D01*
X126394580Y-67699285D02*
X126442200Y-67651666D01*
X126442200Y-67651666D02*
X126489819Y-67556428D01*
X126489819Y-67556428D02*
X126489819Y-67365952D01*
X126489819Y-67365952D02*
X126442200Y-67270714D01*
X126442200Y-67270714D02*
X126394580Y-67223095D01*
X126394580Y-67223095D02*
X126299342Y-67175476D01*
X126299342Y-67175476D02*
X125489819Y-67175476D01*
X125585057Y-66746904D02*
X125537438Y-66699285D01*
X125537438Y-66699285D02*
X125489819Y-66604047D01*
X125489819Y-66604047D02*
X125489819Y-66365952D01*
X125489819Y-66365952D02*
X125537438Y-66270714D01*
X125537438Y-66270714D02*
X125585057Y-66223095D01*
X125585057Y-66223095D02*
X125680295Y-66175476D01*
X125680295Y-66175476D02*
X125775533Y-66175476D01*
X125775533Y-66175476D02*
X125918390Y-66223095D01*
X125918390Y-66223095D02*
X126489819Y-66794523D01*
X126489819Y-66794523D02*
X126489819Y-66175476D01*
X130333333Y-84124819D02*
X130000000Y-83648628D01*
X129761905Y-84124819D02*
X129761905Y-83124819D01*
X129761905Y-83124819D02*
X130142857Y-83124819D01*
X130142857Y-83124819D02*
X130238095Y-83172438D01*
X130238095Y-83172438D02*
X130285714Y-83220057D01*
X130285714Y-83220057D02*
X130333333Y-83315295D01*
X130333333Y-83315295D02*
X130333333Y-83458152D01*
X130333333Y-83458152D02*
X130285714Y-83553390D01*
X130285714Y-83553390D02*
X130238095Y-83601009D01*
X130238095Y-83601009D02*
X130142857Y-83648628D01*
X130142857Y-83648628D02*
X129761905Y-83648628D01*
X130666667Y-83124819D02*
X131285714Y-83124819D01*
X131285714Y-83124819D02*
X130952381Y-83505771D01*
X130952381Y-83505771D02*
X131095238Y-83505771D01*
X131095238Y-83505771D02*
X131190476Y-83553390D01*
X131190476Y-83553390D02*
X131238095Y-83601009D01*
X131238095Y-83601009D02*
X131285714Y-83696247D01*
X131285714Y-83696247D02*
X131285714Y-83934342D01*
X131285714Y-83934342D02*
X131238095Y-84029580D01*
X131238095Y-84029580D02*
X131190476Y-84077200D01*
X131190476Y-84077200D02*
X131095238Y-84124819D01*
X131095238Y-84124819D02*
X130809524Y-84124819D01*
X130809524Y-84124819D02*
X130714286Y-84077200D01*
X130714286Y-84077200D02*
X130666667Y-84029580D01*
X121784819Y-69666666D02*
X121308628Y-69999999D01*
X121784819Y-70238094D02*
X120784819Y-70238094D01*
X120784819Y-70238094D02*
X120784819Y-69857142D01*
X120784819Y-69857142D02*
X120832438Y-69761904D01*
X120832438Y-69761904D02*
X120880057Y-69714285D01*
X120880057Y-69714285D02*
X120975295Y-69666666D01*
X120975295Y-69666666D02*
X121118152Y-69666666D01*
X121118152Y-69666666D02*
X121213390Y-69714285D01*
X121213390Y-69714285D02*
X121261009Y-69761904D01*
X121261009Y-69761904D02*
X121308628Y-69857142D01*
X121308628Y-69857142D02*
X121308628Y-70238094D01*
X120880057Y-69285713D02*
X120832438Y-69238094D01*
X120832438Y-69238094D02*
X120784819Y-69142856D01*
X120784819Y-69142856D02*
X120784819Y-68904761D01*
X120784819Y-68904761D02*
X120832438Y-68809523D01*
X120832438Y-68809523D02*
X120880057Y-68761904D01*
X120880057Y-68761904D02*
X120975295Y-68714285D01*
X120975295Y-68714285D02*
X121070533Y-68714285D01*
X121070533Y-68714285D02*
X121213390Y-68761904D01*
X121213390Y-68761904D02*
X121784819Y-69333332D01*
X121784819Y-69333332D02*
X121784819Y-68714285D01*
X124124819Y-66666666D02*
X123648628Y-66999999D01*
X124124819Y-67238094D02*
X123124819Y-67238094D01*
X123124819Y-67238094D02*
X123124819Y-66857142D01*
X123124819Y-66857142D02*
X123172438Y-66761904D01*
X123172438Y-66761904D02*
X123220057Y-66714285D01*
X123220057Y-66714285D02*
X123315295Y-66666666D01*
X123315295Y-66666666D02*
X123458152Y-66666666D01*
X123458152Y-66666666D02*
X123553390Y-66714285D01*
X123553390Y-66714285D02*
X123601009Y-66761904D01*
X123601009Y-66761904D02*
X123648628Y-66857142D01*
X123648628Y-66857142D02*
X123648628Y-67238094D01*
X124124819Y-65714285D02*
X124124819Y-66285713D01*
X124124819Y-65999999D02*
X123124819Y-65999999D01*
X123124819Y-65999999D02*
X123267676Y-66095237D01*
X123267676Y-66095237D02*
X123362914Y-66190475D01*
X123362914Y-66190475D02*
X123410533Y-66285713D01*
X112166666Y-69574819D02*
X112166666Y-70289104D01*
X112166666Y-70289104D02*
X112119047Y-70431961D01*
X112119047Y-70431961D02*
X112023809Y-70527200D01*
X112023809Y-70527200D02*
X111880952Y-70574819D01*
X111880952Y-70574819D02*
X111785714Y-70574819D01*
X113166666Y-70574819D02*
X112595238Y-70574819D01*
X112880952Y-70574819D02*
X112880952Y-69574819D01*
X112880952Y-69574819D02*
X112785714Y-69717676D01*
X112785714Y-69717676D02*
X112690476Y-69812914D01*
X112690476Y-69812914D02*
X112595238Y-69860533D01*
X129761905Y-85284819D02*
X129761905Y-84284819D01*
X129761905Y-84284819D02*
X130000000Y-84284819D01*
X130000000Y-84284819D02*
X130142857Y-84332438D01*
X130142857Y-84332438D02*
X130238095Y-84427676D01*
X130238095Y-84427676D02*
X130285714Y-84522914D01*
X130285714Y-84522914D02*
X130333333Y-84713390D01*
X130333333Y-84713390D02*
X130333333Y-84856247D01*
X130333333Y-84856247D02*
X130285714Y-85046723D01*
X130285714Y-85046723D02*
X130238095Y-85141961D01*
X130238095Y-85141961D02*
X130142857Y-85237200D01*
X130142857Y-85237200D02*
X130000000Y-85284819D01*
X130000000Y-85284819D02*
X129761905Y-85284819D01*
X131285714Y-85284819D02*
X130714286Y-85284819D01*
X131000000Y-85284819D02*
X131000000Y-84284819D01*
X131000000Y-84284819D02*
X130904762Y-84427676D01*
X130904762Y-84427676D02*
X130809524Y-84522914D01*
X130809524Y-84522914D02*
X130714286Y-84570533D01*
X118199580Y-86166666D02*
X118247200Y-86214285D01*
X118247200Y-86214285D02*
X118294819Y-86357142D01*
X118294819Y-86357142D02*
X118294819Y-86452380D01*
X118294819Y-86452380D02*
X118247200Y-86595237D01*
X118247200Y-86595237D02*
X118151961Y-86690475D01*
X118151961Y-86690475D02*
X118056723Y-86738094D01*
X118056723Y-86738094D02*
X117866247Y-86785713D01*
X117866247Y-86785713D02*
X117723390Y-86785713D01*
X117723390Y-86785713D02*
X117532914Y-86738094D01*
X117532914Y-86738094D02*
X117437676Y-86690475D01*
X117437676Y-86690475D02*
X117342438Y-86595237D01*
X117342438Y-86595237D02*
X117294819Y-86452380D01*
X117294819Y-86452380D02*
X117294819Y-86357142D01*
X117294819Y-86357142D02*
X117342438Y-86214285D01*
X117342438Y-86214285D02*
X117390057Y-86166666D01*
X117294819Y-85833332D02*
X117294819Y-85214285D01*
X117294819Y-85214285D02*
X117675771Y-85547618D01*
X117675771Y-85547618D02*
X117675771Y-85404761D01*
X117675771Y-85404761D02*
X117723390Y-85309523D01*
X117723390Y-85309523D02*
X117771009Y-85261904D01*
X117771009Y-85261904D02*
X117866247Y-85214285D01*
X117866247Y-85214285D02*
X118104342Y-85214285D01*
X118104342Y-85214285D02*
X118199580Y-85261904D01*
X118199580Y-85261904D02*
X118247200Y-85309523D01*
X118247200Y-85309523D02*
X118294819Y-85404761D01*
X118294819Y-85404761D02*
X118294819Y-85690475D01*
X118294819Y-85690475D02*
X118247200Y-85785713D01*
X118247200Y-85785713D02*
X118199580Y-85833332D01*
X126519580Y-74166666D02*
X126567200Y-74214285D01*
X126567200Y-74214285D02*
X126614819Y-74357142D01*
X126614819Y-74357142D02*
X126614819Y-74452380D01*
X126614819Y-74452380D02*
X126567200Y-74595237D01*
X126567200Y-74595237D02*
X126471961Y-74690475D01*
X126471961Y-74690475D02*
X126376723Y-74738094D01*
X126376723Y-74738094D02*
X126186247Y-74785713D01*
X126186247Y-74785713D02*
X126043390Y-74785713D01*
X126043390Y-74785713D02*
X125852914Y-74738094D01*
X125852914Y-74738094D02*
X125757676Y-74690475D01*
X125757676Y-74690475D02*
X125662438Y-74595237D01*
X125662438Y-74595237D02*
X125614819Y-74452380D01*
X125614819Y-74452380D02*
X125614819Y-74357142D01*
X125614819Y-74357142D02*
X125662438Y-74214285D01*
X125662438Y-74214285D02*
X125710057Y-74166666D01*
X125710057Y-73785713D02*
X125662438Y-73738094D01*
X125662438Y-73738094D02*
X125614819Y-73642856D01*
X125614819Y-73642856D02*
X125614819Y-73404761D01*
X125614819Y-73404761D02*
X125662438Y-73309523D01*
X125662438Y-73309523D02*
X125710057Y-73261904D01*
X125710057Y-73261904D02*
X125805295Y-73214285D01*
X125805295Y-73214285D02*
X125900533Y-73214285D01*
X125900533Y-73214285D02*
X126043390Y-73261904D01*
X126043390Y-73261904D02*
X126614819Y-73833332D01*
X126614819Y-73833332D02*
X126614819Y-73214285D01*
X120019580Y-74166666D02*
X120067200Y-74214285D01*
X120067200Y-74214285D02*
X120114819Y-74357142D01*
X120114819Y-74357142D02*
X120114819Y-74452380D01*
X120114819Y-74452380D02*
X120067200Y-74595237D01*
X120067200Y-74595237D02*
X119971961Y-74690475D01*
X119971961Y-74690475D02*
X119876723Y-74738094D01*
X119876723Y-74738094D02*
X119686247Y-74785713D01*
X119686247Y-74785713D02*
X119543390Y-74785713D01*
X119543390Y-74785713D02*
X119352914Y-74738094D01*
X119352914Y-74738094D02*
X119257676Y-74690475D01*
X119257676Y-74690475D02*
X119162438Y-74595237D01*
X119162438Y-74595237D02*
X119114819Y-74452380D01*
X119114819Y-74452380D02*
X119114819Y-74357142D01*
X119114819Y-74357142D02*
X119162438Y-74214285D01*
X119162438Y-74214285D02*
X119210057Y-74166666D01*
X120114819Y-73214285D02*
X120114819Y-73785713D01*
X120114819Y-73499999D02*
X119114819Y-73499999D01*
X119114819Y-73499999D02*
X119257676Y-73595237D01*
X119257676Y-73595237D02*
X119352914Y-73690475D01*
X119352914Y-73690475D02*
X119400533Y-73785713D01*
D11*
%TO.C,C4*%
X123360000Y-86107836D02*
X123360000Y-85892164D01*
X122640000Y-86107836D02*
X122640000Y-85892164D01*
%TO.C,U1*%
X120900748Y-79890000D02*
X122235000Y-79890000D01*
X122235000Y-80810000D02*
X122235000Y-81190000D01*
X122235000Y-82110000D02*
X120765000Y-82110000D01*
X120610000Y-79880000D02*
X120470000Y-79690000D01*
X120750000Y-79690000D01*
X120610000Y-79880000D01*
G36*
X120610000Y-79880000D02*
G01*
X120470000Y-79690000D01*
X120750000Y-79690000D01*
X120610000Y-79880000D01*
G37*
D12*
%TO.C,U2*%
X129850000Y-68350000D02*
X129700000Y-68350000D01*
X129860000Y-68350000D02*
X129860000Y-68200000D01*
X127150000Y-65800000D02*
X127150000Y-65650000D01*
X127150000Y-65650000D02*
X127300000Y-65650000D01*
X129850000Y-65650000D02*
X129850000Y-65800000D01*
X129850000Y-65650000D02*
X129700000Y-65650000D01*
D11*
X127150000Y-68710000D02*
X126790000Y-68350000D01*
X127150000Y-68350000D01*
X127150000Y-68710000D01*
G36*
X127150000Y-68710000D02*
G01*
X126790000Y-68350000D01*
X127150000Y-68350000D01*
X127150000Y-68710000D01*
G37*
%TO.C,R3*%
X130653641Y-82880000D02*
X130346359Y-82880000D01*
X130653641Y-82120000D02*
X130346359Y-82120000D01*
%TO.C,R2*%
X122120000Y-69653641D02*
X122120000Y-69346359D01*
X122880000Y-69653641D02*
X122880000Y-69346359D01*
%TO.C,R1*%
X122880000Y-66346359D02*
X122880000Y-66653641D01*
X122120000Y-66346359D02*
X122120000Y-66653641D01*
%TO.C,J1*%
X111120000Y-71120000D02*
X112500000Y-71120000D01*
X111120000Y-72500000D02*
X111120000Y-71120000D01*
X111120000Y-73770000D02*
X111120000Y-81500000D01*
X111120000Y-73770000D02*
X113880000Y-73770000D01*
X111120000Y-81500000D02*
X113880000Y-81500000D01*
X113880000Y-73770000D02*
X113880000Y-81500000D01*
D12*
%TO.C,D1*%
X129460000Y-86000000D02*
G75*
G02*
X129360000Y-86000000I-50000J0D01*
G01*
X129360000Y-86000000D02*
G75*
G02*
X129460000Y-86000000I50000J0D01*
G01*
D11*
%TO.C,C3*%
X118640000Y-86107836D02*
X118640000Y-85892164D01*
X119360000Y-86107836D02*
X119360000Y-85892164D01*
%TO.C,C2*%
X125360000Y-73892164D02*
X125360000Y-74107836D01*
X124640000Y-73892164D02*
X124640000Y-74107836D01*
%TO.C,C1*%
X118860000Y-73892164D02*
X118860000Y-74107836D01*
X118140000Y-73892164D02*
X118140000Y-74107836D01*
%TD*%
M02*
