%TF.GenerationSoftware,KiCad,Pcbnew,9.0.7*%
%TF.CreationDate,2026-01-25T21:22:40-08:00*%
%TF.ProjectId,pcb_design_lab,7063625f-6465-4736-9967-6e5f6c61622e,rev?*%
%TF.SameCoordinates,Original*%
%TF.FileFunction,Copper,L1,Top*%
%TF.FilePolarity,Positive*%
%FSLAX46Y46*%
G04 Gerber Fmt 4.6, Leading zero omitted, Abs format (unit mm)*
G04 Created by KiCad (PCBNEW 9.0.7) date 2026-01-25 21:22:40*
%MOMM*%
%LPD*%
G01*
G04 APERTURE LIST*
G04 Aperture macros list*
%AMRoundRect*
0 Rectangle with rounded corners*
0 $1 Rounding radius*
0 $2 $3 $4 $5 $6 $7 $8 $9 X,Y pos of 4 corners*
0 Add a 4 corners polygon primitive as box body*
4,1,4,$2,$3,$4,$5,$6,$7,$8,$9,$2,$3,0*
0 Add four circle primitives for the rounded corners*
1,1,$1+$1,$2,$3*
1,1,$1+$1,$4,$5*
1,1,$1+$1,$6,$7*
1,1,$1+$1,$8,$9*
0 Add four rect primitives between the rounded corners*
20,1,$1+$1,$2,$3,$4,$5,0*
20,1,$1+$1,$4,$5,$6,$7,0*
20,1,$1+$1,$6,$7,$8,$9,0*
20,1,$1+$1,$8,$9,$2,$3,0*%
G04 Aperture macros list end*
%TA.AperFunction,SMDPad,CuDef*%
%ADD10RoundRect,0.140000X0.170000X-0.140000X0.170000X0.140000X-0.170000X0.140000X-0.170000X-0.140000X0*%
%TD*%
%TA.AperFunction,SMDPad,CuDef*%
%ADD11RoundRect,0.100000X-0.562500X-0.100000X0.562500X-0.100000X0.562500X0.100000X-0.562500X0.100000X0*%
%TD*%
%TA.AperFunction,SMDPad,CuDef*%
%ADD12R,0.500000X0.350000*%
%TD*%
%TA.AperFunction,SMDPad,CuDef*%
%ADD13RoundRect,0.135000X0.135000X0.185000X-0.135000X0.185000X-0.135000X-0.185000X0.135000X-0.185000X0*%
%TD*%
%TA.AperFunction,SMDPad,CuDef*%
%ADD14RoundRect,0.135000X0.185000X-0.135000X0.185000X0.135000X-0.185000X0.135000X-0.185000X-0.135000X0*%
%TD*%
%TA.AperFunction,SMDPad,CuDef*%
%ADD15RoundRect,0.135000X-0.185000X0.135000X-0.185000X-0.135000X0.185000X-0.135000X0.185000X0.135000X0*%
%TD*%
%TA.AperFunction,ComponentPad*%
%ADD16R,1.700000X1.700000*%
%TD*%
%TA.AperFunction,ComponentPad*%
%ADD17C,1.700000*%
%TD*%
%TA.AperFunction,SMDPad,CuDef*%
%ADD18RoundRect,0.147500X-0.147500X-0.172500X0.147500X-0.172500X0.147500X0.172500X-0.147500X0.172500X0*%
%TD*%
%TA.AperFunction,SMDPad,CuDef*%
%ADD19RoundRect,0.140000X-0.170000X0.140000X-0.170000X-0.140000X0.170000X-0.140000X0.170000X0.140000X0*%
%TD*%
%TA.AperFunction,Conductor*%
%ADD20C,0.200000*%
%TD*%
G04 APERTURE END LIST*
D10*
%TO.P,C4,2*%
%TO.N,/+2V8*%
X123000000Y-85520000D03*
%TO.P,C4,1*%
%TO.N,/GND*%
X123000000Y-86480000D03*
%TD*%
D11*
%TO.P,U1,1,VIN*%
%TO.N,Net-(J1-VIN)*%
X120612500Y-80350000D03*
%TO.P,U1,2,GND*%
%TO.N,/GND*%
X120612500Y-81000000D03*
%TO.P,U1,3,EN*%
%TO.N,Net-(J1-VIN)*%
X120612500Y-81650000D03*
%TO.P,U1,4,NC*%
%TO.N,unconnected-(U1-NC-Pad4)*%
X122387500Y-81650000D03*
%TO.P,U1,5,VOUT*%
%TO.N,/+2V8*%
X122387500Y-80350000D03*
%TD*%
D12*
%TO.P,U2,1,GND*%
%TO.N,/GND*%
X127475000Y-67975000D03*
%TO.P,U2,2,CSB*%
%TO.N,/+2V8*%
X127475000Y-67325000D03*
%TO.P,U2,3,SDI*%
%TO.N,/SCL*%
X127475000Y-66675000D03*
%TO.P,U2,4,SCK*%
%TO.N,/SDA*%
X127475000Y-66025000D03*
%TO.P,U2,5,SDO*%
%TO.N,/GND*%
X129525000Y-66025000D03*
%TO.P,U2,6,VDDIO*%
%TO.N,/+2V8*%
X129525000Y-66675000D03*
%TO.P,U2,7,GND*%
%TO.N,/GND*%
X129525000Y-67325000D03*
%TO.P,U2,8,VDD*%
%TO.N,/+2V8*%
X129525000Y-67975000D03*
%TD*%
D13*
%TO.P,R3,1*%
%TO.N,Net-(D1-A)*%
X131010000Y-82500000D03*
%TO.P,R3,2*%
%TO.N,/+2V8*%
X129990000Y-82500000D03*
%TD*%
D14*
%TO.P,R2,1*%
%TO.N,/+2V8*%
X122500000Y-70010000D03*
%TO.P,R2,2*%
%TO.N,/SCL*%
X122500000Y-68990000D03*
%TD*%
D15*
%TO.P,R1,1*%
%TO.N,/+2V8*%
X122500000Y-65990000D03*
%TO.P,R1,2*%
%TO.N,/SDA*%
X122500000Y-67010000D03*
%TD*%
D16*
%TO.P,J1,1,SCL*%
%TO.N,/SCL*%
X112500000Y-72500000D03*
D17*
%TO.P,J1,2,SDA*%
%TO.N,/SDA*%
X112500000Y-75040000D03*
%TO.P,J1,3,GND*%
%TO.N,/GND*%
X112500000Y-77580000D03*
%TO.P,J1,4,VIN*%
%TO.N,Net-(J1-VIN)*%
X112500000Y-80120000D03*
%TD*%
D18*
%TO.P,D1,1,K*%
%TO.N,/GND*%
X130015000Y-86000000D03*
%TO.P,D1,2,A*%
%TO.N,Net-(D1-A)*%
X130985000Y-86000000D03*
%TD*%
D10*
%TO.P,C3,1*%
%TO.N,/GND*%
X119000000Y-86480000D03*
%TO.P,C3,2*%
%TO.N,Net-(J1-VIN)*%
X119000000Y-85520000D03*
%TD*%
D19*
%TO.P,C2,1*%
%TO.N,/GND*%
X125000000Y-73520000D03*
%TO.P,C2,2*%
%TO.N,/+2V8*%
X125000000Y-74480000D03*
%TD*%
%TO.P,C1,1*%
%TO.N,/GND*%
X118500000Y-73520000D03*
%TO.P,C1,2*%
%TO.N,/+2V8*%
X118500000Y-74480000D03*
%TD*%
D20*
%TO.N,Net-(J1-VIN)*%
X114030000Y-81650000D02*
X120612500Y-81650000D01*
X112500000Y-80120000D02*
X114030000Y-81650000D01*
%TO.N,/GND*%
X123351000Y-81381130D02*
X123351000Y-84129000D01*
X120612500Y-81000000D02*
X122969870Y-81000000D01*
X122969870Y-81000000D02*
X123351000Y-81381130D01*
X123351000Y-84129000D02*
X121000000Y-86480000D01*
X121000000Y-86480000D02*
X123000000Y-86480000D01*
%TO.N,/+2V8*%
X126480000Y-85520000D02*
X123000000Y-85520000D01*
X129500000Y-82500000D02*
X126480000Y-85520000D01*
X129990000Y-82500000D02*
X129500000Y-82500000D01*
%TO.N,/GND*%
X129535000Y-86480000D02*
X130015000Y-86000000D01*
X123000000Y-86480000D02*
X129535000Y-86480000D01*
X117232240Y-86480000D02*
X119000000Y-86480000D01*
X111349000Y-80596760D02*
X117232240Y-86480000D01*
X111349000Y-78731000D02*
X111349000Y-80596760D01*
X112500000Y-77580000D02*
X111349000Y-78731000D01*
X119000000Y-86480000D02*
X121000000Y-86480000D01*
X116560000Y-73520000D02*
X112500000Y-77580000D01*
X118500000Y-73520000D02*
X116560000Y-73520000D01*
X125000000Y-70450000D02*
X125000000Y-73520000D01*
X127475000Y-67975000D02*
X125000000Y-70450000D01*
%TO.N,/+2V8*%
X124413000Y-70010000D02*
X127098000Y-67325000D01*
X127098000Y-67325000D02*
X127475000Y-67325000D01*
X122500000Y-70010000D02*
X124413000Y-70010000D01*
%TO.N,/GND*%
X130076000Y-66126000D02*
X129975000Y-66025000D01*
X130076000Y-67074000D02*
X130076000Y-66126000D01*
X129975000Y-66025000D02*
X129525000Y-66025000D01*
X129825000Y-67325000D02*
X130076000Y-67074000D01*
X129525000Y-67325000D02*
X129825000Y-67325000D01*
X128575000Y-67325000D02*
X129525000Y-67325000D01*
X127925000Y-67975000D02*
X128575000Y-67325000D01*
X127475000Y-67975000D02*
X127925000Y-67975000D01*
%TO.N,/+2V8*%
X129152000Y-66675000D02*
X129525000Y-66675000D01*
X122941000Y-65549000D02*
X128026000Y-65549000D01*
X122500000Y-65990000D02*
X122941000Y-65549000D01*
X128026000Y-65549000D02*
X129152000Y-66675000D01*
X128657900Y-66675000D02*
X129525000Y-66675000D01*
X128007900Y-67325000D02*
X128657900Y-66675000D01*
X127475000Y-67325000D02*
X128007900Y-67325000D01*
%TO.N,/SDA*%
X123485000Y-66025000D02*
X127475000Y-66025000D01*
X122500000Y-67010000D02*
X123485000Y-66025000D01*
%TO.N,/+2V8*%
X129525000Y-69475000D02*
X129525000Y-67975000D01*
X126924000Y-72076000D02*
X129525000Y-69475000D01*
X126924000Y-72556000D02*
X126924000Y-72076000D01*
X125000000Y-74480000D02*
X126924000Y-72556000D01*
X122500000Y-71980000D02*
X125000000Y-74480000D01*
X122500000Y-70010000D02*
X122500000Y-71980000D01*
X125000000Y-77500000D02*
X125000000Y-74480000D01*
X118500000Y-76422500D02*
X118500000Y-74480000D01*
X118480000Y-76442500D02*
X118500000Y-76422500D01*
%TO.N,/SDA*%
X109601000Y-67399000D02*
X110000000Y-67000000D01*
X110000000Y-67000000D02*
X110010000Y-67010000D01*
X110010000Y-67010000D02*
X122500000Y-67010000D01*
X109601000Y-75000000D02*
X109601000Y-67399000D01*
%TO.N,/SCL*%
X124773000Y-69000000D02*
X127098000Y-66675000D01*
X127098000Y-66675000D02*
X127475000Y-66675000D01*
X112500000Y-69000000D02*
X124773000Y-69000000D01*
X112500000Y-72500000D02*
X112500000Y-69000000D01*
%TO.N,/SDA*%
X112460000Y-75000000D02*
X109601000Y-75000000D01*
X112500000Y-75040000D02*
X112460000Y-75000000D01*
%TO.N,/+2V8*%
X122387500Y-80112500D02*
X125000000Y-77500000D01*
X122387500Y-80350000D02*
X122387500Y-80112500D01*
X122387500Y-80350000D02*
X118480000Y-76442500D01*
%TO.N,Net-(J1-VIN)*%
X120612500Y-83907500D02*
X120612500Y-81650000D01*
X119000000Y-85520000D02*
X120612500Y-83907500D01*
%TO.N,Net-(D1-A)*%
X131010000Y-85975000D02*
X130985000Y-86000000D01*
X131010000Y-82500000D02*
X131010000Y-85975000D01*
%TO.N,Net-(J1-VIN)*%
X120382500Y-80120000D02*
X120612500Y-80350000D01*
X112500000Y-80120000D02*
X120382500Y-80120000D01*
%TO.N,/+2V8*%
X127840000Y-80350000D02*
X129990000Y-82500000D01*
X122387500Y-80350000D02*
X127840000Y-80350000D01*
%TD*%
%TA.AperFunction,Conductor*%
%TO.N,/GND*%
G36*
X122174127Y-65020185D02*
G01*
X122219882Y-65072989D01*
X122229826Y-65142147D01*
X122200801Y-65205703D01*
X122142023Y-65243477D01*
X122141683Y-65243576D01*
X122060611Y-65267129D01*
X122060606Y-65267131D01*
X121922404Y-65348863D01*
X121922396Y-65348869D01*
X121808869Y-65462396D01*
X121808863Y-65462404D01*
X121727131Y-65600606D01*
X121727129Y-65600611D01*
X121682335Y-65754791D01*
X121682334Y-65754797D01*
X121679500Y-65790811D01*
X121679500Y-66189169D01*
X121679501Y-66189191D01*
X121682335Y-66225203D01*
X121689802Y-66250904D01*
X121689603Y-66320773D01*
X121651662Y-66379444D01*
X121588024Y-66408288D01*
X121570726Y-66409500D01*
X110132706Y-66409500D01*
X110100614Y-66405275D01*
X110079058Y-66399499D01*
X110079057Y-66399499D01*
X109920943Y-66399499D01*
X109806397Y-66430192D01*
X109768214Y-66440423D01*
X109631284Y-66519481D01*
X109631281Y-66519483D01*
X109232286Y-66918478D01*
X109120481Y-67030282D01*
X109120480Y-67030284D01*
X109084147Y-67093215D01*
X109041423Y-67167215D01*
X109000499Y-67319943D01*
X109000499Y-67319945D01*
X109000499Y-67488046D01*
X109000500Y-67488059D01*
X109000500Y-74920943D01*
X109000500Y-75079057D01*
X109004854Y-75095304D01*
X109041423Y-75231783D01*
X109041426Y-75231790D01*
X109120475Y-75368709D01*
X109120479Y-75368714D01*
X109120480Y-75368716D01*
X109232284Y-75480520D01*
X109232286Y-75480521D01*
X109232290Y-75480524D01*
X109367198Y-75558412D01*
X109369216Y-75559577D01*
X109521943Y-75600500D01*
X111193900Y-75600500D01*
X111260939Y-75620185D01*
X111304385Y-75668205D01*
X111344951Y-75747819D01*
X111469890Y-75919786D01*
X111620213Y-76070109D01*
X111792179Y-76195048D01*
X111792181Y-76195049D01*
X111792184Y-76195051D01*
X111801493Y-76199794D01*
X111852290Y-76247766D01*
X111869087Y-76315587D01*
X111846552Y-76381722D01*
X111801505Y-76420760D01*
X111792446Y-76425376D01*
X111792440Y-76425380D01*
X111738282Y-76464727D01*
X111738282Y-76464728D01*
X112370591Y-77097037D01*
X112307007Y-77114075D01*
X112192993Y-77179901D01*
X112099901Y-77272993D01*
X112034075Y-77387007D01*
X112017037Y-77450591D01*
X111384728Y-76818282D01*
X111384727Y-76818282D01*
X111345380Y-76872439D01*
X111248904Y-77061782D01*
X111183242Y-77263869D01*
X111183242Y-77263872D01*
X111150000Y-77473753D01*
X111150000Y-77686246D01*
X111183242Y-77896127D01*
X111183242Y-77896130D01*
X111248904Y-78098217D01*
X111345375Y-78287550D01*
X111384728Y-78341716D01*
X112017037Y-77709408D01*
X112034075Y-77772993D01*
X112099901Y-77887007D01*
X112192993Y-77980099D01*
X112307007Y-78045925D01*
X112370590Y-78062962D01*
X111738282Y-78695269D01*
X111738282Y-78695270D01*
X111792452Y-78734626D01*
X111792451Y-78734626D01*
X111801495Y-78739234D01*
X111852292Y-78787208D01*
X111869087Y-78855029D01*
X111846550Y-78921164D01*
X111801499Y-78960202D01*
X111792182Y-78964949D01*
X111620213Y-79089890D01*
X111469890Y-79240213D01*
X111344951Y-79412179D01*
X111248444Y-79601585D01*
X111182753Y-79803760D01*
X111149500Y-80013713D01*
X111149500Y-80226286D01*
X111182753Y-80436239D01*
X111248444Y-80638414D01*
X111344951Y-80827820D01*
X111469890Y-80999786D01*
X111620213Y-81150109D01*
X111792179Y-81275048D01*
X111792181Y-81275049D01*
X111792184Y-81275051D01*
X111981588Y-81371557D01*
X112183757Y-81437246D01*
X112393713Y-81470500D01*
X112393714Y-81470500D01*
X112606286Y-81470500D01*
X112606287Y-81470500D01*
X112816243Y-81437246D01*
X112858523Y-81423507D01*
X112928362Y-81421511D01*
X112984521Y-81453756D01*
X113661284Y-82130520D01*
X113661286Y-82130521D01*
X113661290Y-82130524D01*
X113725022Y-82167319D01*
X113798216Y-82209577D01*
X113950943Y-82250501D01*
X113950945Y-82250501D01*
X114116654Y-82250501D01*
X114116670Y-82250500D01*
X119673743Y-82250500D01*
X119719434Y-82259225D01*
X119735509Y-82265596D01*
X119747159Y-82274536D01*
X119893238Y-82335044D01*
X119919414Y-82338490D01*
X119933691Y-82344149D01*
X119949609Y-82356579D01*
X119968082Y-82364751D01*
X119976587Y-82377645D01*
X119988760Y-82387151D01*
X119995431Y-82406215D01*
X120006553Y-82423076D01*
X120010462Y-82449166D01*
X120011839Y-82453099D01*
X120011355Y-82455122D01*
X120012000Y-82459424D01*
X120012000Y-83607403D01*
X119992315Y-83674442D01*
X119975681Y-83695084D01*
X118967584Y-84703181D01*
X118906261Y-84736666D01*
X118879903Y-84739500D01*
X118765302Y-84739500D01*
X118729008Y-84742356D01*
X118729002Y-84742357D01*
X118573609Y-84787504D01*
X118573606Y-84787505D01*
X118434315Y-84869881D01*
X118434307Y-84869887D01*
X118319887Y-84984307D01*
X118319881Y-84984315D01*
X118237505Y-85123606D01*
X118237504Y-85123609D01*
X118192357Y-85279002D01*
X118192356Y-85279008D01*
X118189500Y-85315302D01*
X118189500Y-85724697D01*
X118192356Y-85760991D01*
X118192357Y-85760997D01*
X118237504Y-85916390D01*
X118237507Y-85916397D01*
X118249910Y-85937370D01*
X118267093Y-86005094D01*
X118249912Y-86063608D01*
X118237968Y-86083804D01*
X118195496Y-86230000D01*
X118501648Y-86230000D01*
X118564766Y-86247267D01*
X118573605Y-86252494D01*
X118573608Y-86252494D01*
X118573610Y-86252496D01*
X118729002Y-86297642D01*
X118729005Y-86297642D01*
X118729007Y-86297643D01*
X118765310Y-86300500D01*
X118765318Y-86300500D01*
X119234682Y-86300500D01*
X119234690Y-86300500D01*
X119270993Y-86297643D01*
X119270995Y-86297642D01*
X119270997Y-86297642D01*
X119426389Y-86252496D01*
X119426389Y-86252495D01*
X119426395Y-86252494D01*
X119435233Y-86247267D01*
X119498352Y-86230000D01*
X119804504Y-86230000D01*
X119762031Y-86083803D01*
X119750090Y-86063613D01*
X119732906Y-85995889D01*
X119750089Y-85937369D01*
X119762494Y-85916395D01*
X119807643Y-85760993D01*
X119810500Y-85724690D01*
X119810500Y-85610096D01*
X119830185Y-85543057D01*
X119846814Y-85522419D01*
X120971006Y-84398227D01*
X120971011Y-84398224D01*
X120981214Y-84388020D01*
X120981216Y-84388020D01*
X121093020Y-84276216D01*
X121172077Y-84139284D01*
X121213000Y-83986557D01*
X121213000Y-82459424D01*
X121232685Y-82392385D01*
X121285489Y-82346630D01*
X121294260Y-82343023D01*
X121307175Y-82338280D01*
X121331762Y-82335044D01*
X121454877Y-82284047D01*
X121457260Y-82283173D01*
X121489687Y-82281019D01*
X121522017Y-82277544D01*
X121525709Y-82278628D01*
X121526976Y-82278544D01*
X121528736Y-82279517D01*
X121547451Y-82285012D01*
X121668238Y-82335044D01*
X121785639Y-82350500D01*
X122989360Y-82350499D01*
X122989363Y-82350499D01*
X123106753Y-82335046D01*
X123106757Y-82335044D01*
X123106762Y-82335044D01*
X123252841Y-82274536D01*
X123378282Y-82178282D01*
X123474536Y-82052841D01*
X123535044Y-81906762D01*
X123550500Y-81789361D01*
X123550499Y-81510640D01*
X123550499Y-81510636D01*
X123535046Y-81393246D01*
X123535044Y-81393241D01*
X123535044Y-81393238D01*
X123474536Y-81247159D01*
X123474535Y-81247158D01*
X123474535Y-81247157D01*
X123399973Y-81149986D01*
X123374779Y-81084817D01*
X123388817Y-81016372D01*
X123437631Y-80966383D01*
X123498349Y-80950500D01*
X127539903Y-80950500D01*
X127606942Y-80970185D01*
X127627584Y-80986819D01*
X128808084Y-82167319D01*
X128841569Y-82228642D01*
X128836585Y-82298334D01*
X128808084Y-82342681D01*
X126267584Y-84883181D01*
X126206261Y-84916666D01*
X126179903Y-84919500D01*
X123666667Y-84919500D01*
X123599628Y-84899815D01*
X123578986Y-84883181D01*
X123565692Y-84869887D01*
X123565684Y-84869881D01*
X123426393Y-84787505D01*
X123426390Y-84787504D01*
X123270997Y-84742357D01*
X123270991Y-84742356D01*
X123234697Y-84739500D01*
X123234690Y-84739500D01*
X122765310Y-84739500D01*
X122765302Y-84739500D01*
X122729008Y-84742356D01*
X122729002Y-84742357D01*
X122573609Y-84787504D01*
X122573606Y-84787505D01*
X122434315Y-84869881D01*
X122434307Y-84869887D01*
X122319887Y-84984307D01*
X122319881Y-84984315D01*
X122237505Y-85123606D01*
X122237504Y-85123609D01*
X122192357Y-85279002D01*
X122192356Y-85279008D01*
X122189500Y-85315302D01*
X122189500Y-85724697D01*
X122192356Y-85760991D01*
X122192357Y-85760997D01*
X122237504Y-85916390D01*
X122237507Y-85916397D01*
X122249910Y-85937370D01*
X122267093Y-86005094D01*
X122249912Y-86063608D01*
X122237968Y-86083804D01*
X122195496Y-86230000D01*
X122501648Y-86230000D01*
X122564766Y-86247267D01*
X122573605Y-86252494D01*
X122573608Y-86252494D01*
X122573610Y-86252496D01*
X122729002Y-86297642D01*
X122729005Y-86297642D01*
X122729007Y-86297643D01*
X122765310Y-86300500D01*
X122765318Y-86300500D01*
X123234682Y-86300500D01*
X123234690Y-86300500D01*
X123270993Y-86297643D01*
X123270995Y-86297642D01*
X123270997Y-86297642D01*
X123426389Y-86252496D01*
X123426389Y-86252495D01*
X123426395Y-86252494D01*
X123430612Y-86250000D01*
X129220954Y-86250000D01*
X129222889Y-86274597D01*
X129268529Y-86431692D01*
X129268531Y-86431697D01*
X129351806Y-86572508D01*
X129351812Y-86572516D01*
X129467483Y-86688187D01*
X129467491Y-86688193D01*
X129608302Y-86771468D01*
X129765000Y-86816992D01*
X129765000Y-86250000D01*
X129220954Y-86250000D01*
X123430612Y-86250000D01*
X123435233Y-86247267D01*
X123498352Y-86230000D01*
X123804505Y-86230000D01*
X123818962Y-86210744D01*
X123818967Y-86209226D01*
X123856909Y-86150556D01*
X123920547Y-86121712D01*
X123937844Y-86120500D01*
X126393331Y-86120500D01*
X126393347Y-86120501D01*
X126400943Y-86120501D01*
X126559054Y-86120501D01*
X126559057Y-86120501D01*
X126711785Y-86079577D01*
X126791405Y-86033608D01*
X126848716Y-86000520D01*
X126960520Y-85888716D01*
X126960520Y-85888714D01*
X126970723Y-85878512D01*
X126970727Y-85878506D01*
X127099233Y-85750000D01*
X129220953Y-85750000D01*
X129765000Y-85750000D01*
X129765000Y-85183006D01*
X129764998Y-85183005D01*
X129608307Y-85228528D01*
X129608304Y-85228530D01*
X129467491Y-85311806D01*
X129467483Y-85311812D01*
X129351812Y-85427483D01*
X129351806Y-85427491D01*
X129268531Y-85568302D01*
X129268529Y-85568307D01*
X129222890Y-85725396D01*
X129222888Y-85725408D01*
X129220953Y-85750000D01*
X127099233Y-85750000D01*
X129529969Y-83319264D01*
X129591290Y-83285781D01*
X129652243Y-83287871D01*
X129754791Y-83317664D01*
X129754794Y-83317664D01*
X129754796Y-83317665D01*
X129790819Y-83320500D01*
X130189180Y-83320499D01*
X130225204Y-83317665D01*
X130250905Y-83310198D01*
X130320773Y-83310397D01*
X130379444Y-83348338D01*
X130408288Y-83411976D01*
X130409500Y-83429274D01*
X130409500Y-85059835D01*
X130389815Y-85126874D01*
X130337011Y-85172629D01*
X130267853Y-85182573D01*
X130266085Y-85182191D01*
X130265000Y-85183006D01*
X130265000Y-85488641D01*
X130247734Y-85551759D01*
X130238067Y-85568104D01*
X130192391Y-85725320D01*
X130192390Y-85725326D01*
X130189500Y-85762052D01*
X130189500Y-86237947D01*
X130192390Y-86274673D01*
X130192391Y-86274679D01*
X130238066Y-86431892D01*
X130238068Y-86431895D01*
X130247732Y-86448236D01*
X130265000Y-86511357D01*
X130265000Y-86816991D01*
X130421696Y-86771468D01*
X130436386Y-86762781D01*
X130504110Y-86745597D01*
X130562628Y-86762779D01*
X130578103Y-86771931D01*
X130578104Y-86771931D01*
X130578107Y-86771933D01*
X130735320Y-86817608D01*
X130735323Y-86817608D01*
X130735325Y-86817609D01*
X130772060Y-86820500D01*
X130772068Y-86820500D01*
X131197932Y-86820500D01*
X131197940Y-86820500D01*
X131234675Y-86817609D01*
X131234677Y-86817608D01*
X131234679Y-86817608D01*
X131391892Y-86771933D01*
X131391893Y-86771932D01*
X131391897Y-86771931D01*
X131532820Y-86688590D01*
X131648590Y-86572820D01*
X131731931Y-86431897D01*
X131731932Y-86431893D01*
X131731933Y-86431892D01*
X131777608Y-86274679D01*
X131777609Y-86274673D01*
X131779354Y-86252496D01*
X131780500Y-86237940D01*
X131780500Y-85762060D01*
X131777609Y-85725325D01*
X131777425Y-85724690D01*
X131731933Y-85568107D01*
X131731931Y-85568104D01*
X131731931Y-85568103D01*
X131648590Y-85427180D01*
X131648588Y-85427178D01*
X131648585Y-85427174D01*
X131646819Y-85425408D01*
X131645876Y-85423682D01*
X131643807Y-85421014D01*
X131644237Y-85420680D01*
X131613334Y-85364085D01*
X131610500Y-85337727D01*
X131610500Y-83169595D01*
X131630185Y-83102556D01*
X131646818Y-83081914D01*
X131651135Y-83077598D01*
X131732869Y-82939393D01*
X131777665Y-82785204D01*
X131780500Y-82749181D01*
X131780499Y-82250820D01*
X131777665Y-82214796D01*
X131732869Y-82060607D01*
X131651135Y-81922402D01*
X131651133Y-81922400D01*
X131651130Y-81922396D01*
X131537603Y-81808869D01*
X131537595Y-81808863D01*
X131399393Y-81727131D01*
X131399388Y-81727129D01*
X131245208Y-81682335D01*
X131245202Y-81682334D01*
X131209181Y-81679500D01*
X130810830Y-81679500D01*
X130810808Y-81679501D01*
X130774794Y-81682335D01*
X130620611Y-81727129D01*
X130620604Y-81727132D01*
X130563119Y-81761128D01*
X130495395Y-81778309D01*
X130436881Y-81761128D01*
X130379395Y-81727132D01*
X130379388Y-81727129D01*
X130225208Y-81682335D01*
X130225202Y-81682334D01*
X130189188Y-81679500D01*
X130189181Y-81679500D01*
X130070097Y-81679500D01*
X130003058Y-81659815D01*
X129982416Y-81643181D01*
X128327590Y-79988355D01*
X128327588Y-79988352D01*
X128208717Y-79869481D01*
X128208716Y-79869480D01*
X128121904Y-79819360D01*
X128121904Y-79819359D01*
X128121900Y-79819358D01*
X128071785Y-79790423D01*
X127919057Y-79749499D01*
X127760943Y-79749499D01*
X127753347Y-79749499D01*
X127753331Y-79749500D01*
X123899097Y-79749500D01*
X123832058Y-79729815D01*
X123786303Y-79677011D01*
X123776359Y-79607853D01*
X123805384Y-79544297D01*
X123811416Y-79537819D01*
X124109027Y-79240208D01*
X125368713Y-77980521D01*
X125368716Y-77980520D01*
X125480520Y-77868716D01*
X125530639Y-77781904D01*
X125559577Y-77731785D01*
X125600501Y-77579057D01*
X125600501Y-77420943D01*
X125600501Y-77413348D01*
X125600500Y-77413330D01*
X125600500Y-75146666D01*
X125620185Y-75079627D01*
X125636820Y-75058984D01*
X125680112Y-75015692D01*
X125680117Y-75015687D01*
X125762494Y-74876395D01*
X125807643Y-74720993D01*
X125810500Y-74684690D01*
X125810500Y-74570096D01*
X125830185Y-74503057D01*
X125846814Y-74482420D01*
X127292713Y-73036521D01*
X127292716Y-73036520D01*
X127404520Y-72924716D01*
X127454639Y-72837904D01*
X127483577Y-72787785D01*
X127524501Y-72635057D01*
X127524501Y-72476943D01*
X127524501Y-72469348D01*
X127524500Y-72469330D01*
X127524500Y-72376096D01*
X127544185Y-72309057D01*
X127560814Y-72288420D01*
X129883506Y-69965727D01*
X129883511Y-69965724D01*
X129893714Y-69955520D01*
X129893716Y-69955520D01*
X130005520Y-69843716D01*
X130084577Y-69706784D01*
X130125500Y-69554057D01*
X130125500Y-68558230D01*
X130145185Y-68491191D01*
X130150233Y-68483919D01*
X130213429Y-68399500D01*
X130218796Y-68392331D01*
X130269091Y-68257483D01*
X130275500Y-68197873D01*
X130275499Y-67752128D01*
X130269091Y-67692517D01*
X130269091Y-67692516D01*
X130267307Y-67684966D01*
X130268559Y-67684669D01*
X130264145Y-67622924D01*
X130268132Y-67609346D01*
X130268598Y-67607375D01*
X130274999Y-67547844D01*
X130275000Y-67547827D01*
X130275000Y-67500000D01*
X130237694Y-67500000D01*
X130170655Y-67480315D01*
X130153491Y-67467027D01*
X130145199Y-67459357D01*
X130132546Y-67442454D01*
X130103084Y-67420398D01*
X130098358Y-67416027D01*
X130083607Y-67391348D01*
X130066379Y-67368334D01*
X130065906Y-67361733D01*
X130062512Y-67356053D01*
X130063445Y-67327317D01*
X130061395Y-67298642D01*
X130064566Y-67292834D01*
X130064781Y-67286220D01*
X130081103Y-67262549D01*
X130094880Y-67237319D01*
X130103875Y-67229524D01*
X130104444Y-67228700D01*
X130105183Y-67228390D01*
X130108251Y-67225733D01*
X130132546Y-67207546D01*
X130138428Y-67199687D01*
X130194361Y-67157818D01*
X130237694Y-67150000D01*
X130275000Y-67150000D01*
X130275000Y-67102172D01*
X130274999Y-67102155D01*
X130268598Y-67042627D01*
X130266814Y-67035076D01*
X130268459Y-67034687D01*
X130264143Y-66974361D01*
X130269058Y-66957619D01*
X130269089Y-66957489D01*
X130269089Y-66957488D01*
X130269091Y-66957483D01*
X130275500Y-66897873D01*
X130275499Y-66452128D01*
X130269091Y-66392517D01*
X130269091Y-66392516D01*
X130267307Y-66384966D01*
X130268559Y-66384669D01*
X130264145Y-66322924D01*
X130268132Y-66309346D01*
X130268598Y-66307375D01*
X130274999Y-66247844D01*
X130275000Y-66247827D01*
X130275000Y-66200000D01*
X130237694Y-66200000D01*
X130170655Y-66180315D01*
X130158639Y-66171532D01*
X130147272Y-66162125D01*
X130132546Y-66142454D01*
X130037704Y-66071455D01*
X130035380Y-66069532D01*
X130017443Y-66042968D01*
X129998253Y-66017332D01*
X129998030Y-66014216D01*
X129996281Y-66011626D01*
X129995554Y-65979594D01*
X129993269Y-65947641D01*
X129994766Y-65944897D01*
X129994696Y-65941774D01*
X130011404Y-65914430D01*
X130026755Y-65886318D01*
X130029496Y-65884821D01*
X130031126Y-65882154D01*
X130059969Y-65868182D01*
X130088078Y-65852834D01*
X130092673Y-65852339D01*
X130094007Y-65851694D01*
X130096208Y-65851959D01*
X130114435Y-65850000D01*
X130275000Y-65850000D01*
X130275000Y-65802172D01*
X130274999Y-65802155D01*
X130268598Y-65742627D01*
X130268596Y-65742620D01*
X130218354Y-65607913D01*
X130218350Y-65607906D01*
X130132190Y-65492812D01*
X130132187Y-65492809D01*
X130017093Y-65406649D01*
X130017086Y-65406645D01*
X129882379Y-65356403D01*
X129882372Y-65356401D01*
X129822844Y-65350000D01*
X129700000Y-65350000D01*
X129700000Y-65875500D01*
X129697449Y-65884185D01*
X129698738Y-65893147D01*
X129687759Y-65917187D01*
X129680315Y-65942539D01*
X129673474Y-65948466D01*
X129669713Y-65956703D01*
X129647478Y-65970992D01*
X129627511Y-65988294D01*
X129616996Y-65990581D01*
X129610935Y-65994477D01*
X129576000Y-65999500D01*
X129474000Y-65999500D01*
X129406961Y-65979815D01*
X129361206Y-65927011D01*
X129350000Y-65875500D01*
X129350000Y-65350000D01*
X129227155Y-65350000D01*
X129167627Y-65356401D01*
X129167620Y-65356403D01*
X129032913Y-65406645D01*
X129032906Y-65406649D01*
X128947344Y-65470702D01*
X128881880Y-65495120D01*
X128813607Y-65480269D01*
X128785352Y-65459117D01*
X128538416Y-65212181D01*
X128504931Y-65150858D01*
X128509915Y-65081166D01*
X128551787Y-65025233D01*
X128617251Y-65000816D01*
X128626097Y-65000500D01*
X132934108Y-65000500D01*
X132995933Y-65000500D01*
X133004043Y-65000765D01*
X133252895Y-65017075D01*
X133268951Y-65019190D01*
X133403806Y-65046014D01*
X133465717Y-65078399D01*
X133500291Y-65139115D01*
X133503585Y-65164936D01*
X133879330Y-82449166D01*
X133975569Y-86876195D01*
X133997235Y-87872805D01*
X133979012Y-87940256D01*
X133927215Y-87987148D01*
X133873264Y-87999500D01*
X106504428Y-87999500D01*
X106495582Y-87999184D01*
X106473622Y-87997613D01*
X106295442Y-87984869D01*
X106277931Y-87982351D01*
X106097642Y-87943132D01*
X106036319Y-87909647D01*
X106002834Y-87848324D01*
X106000000Y-87821966D01*
X106000000Y-86730000D01*
X118195496Y-86730000D01*
X118237968Y-86876195D01*
X118320278Y-87015374D01*
X118320285Y-87015383D01*
X118434616Y-87129714D01*
X118434625Y-87129721D01*
X118573804Y-87212031D01*
X118729089Y-87257145D01*
X118750000Y-87258789D01*
X119250000Y-87258789D01*
X119270910Y-87257145D01*
X119426195Y-87212031D01*
X119565374Y-87129721D01*
X119565383Y-87129714D01*
X119679714Y-87015383D01*
X119679721Y-87015374D01*
X119762031Y-86876195D01*
X119804504Y-86730000D01*
X122195496Y-86730000D01*
X122237968Y-86876195D01*
X122320278Y-87015374D01*
X122320285Y-87015383D01*
X122434616Y-87129714D01*
X122434625Y-87129721D01*
X122573804Y-87212031D01*
X122729089Y-87257145D01*
X122750000Y-87258789D01*
X123250000Y-87258789D01*
X123270910Y-87257145D01*
X123426195Y-87212031D01*
X123565374Y-87129721D01*
X123565383Y-87129714D01*
X123679714Y-87015383D01*
X123679721Y-87015374D01*
X123762031Y-86876195D01*
X123804504Y-86730000D01*
X123250000Y-86730000D01*
X123250000Y-87258789D01*
X122750000Y-87258789D01*
X122750000Y-86730000D01*
X122195496Y-86730000D01*
X119804504Y-86730000D01*
X119250000Y-86730000D01*
X119250000Y-87258789D01*
X118750000Y-87258789D01*
X118750000Y-86730000D01*
X118195496Y-86730000D01*
X106000000Y-86730000D01*
X106000000Y-65345613D01*
X106004512Y-65330244D01*
X106004036Y-65314233D01*
X106014154Y-65297407D01*
X106019685Y-65278574D01*
X106032203Y-65267396D01*
X106040045Y-65254357D01*
X106069154Y-65234402D01*
X106227547Y-65156291D01*
X106242512Y-65150093D01*
X106406762Y-65094337D01*
X106474797Y-65071243D01*
X106490464Y-65067045D01*
X106731048Y-65019190D01*
X106747102Y-65017075D01*
X106995957Y-65000765D01*
X107004067Y-65000500D01*
X107065892Y-65000500D01*
X122107088Y-65000500D01*
X122174127Y-65020185D01*
G37*
%TD.AperFunction*%
%TA.AperFunction,Conductor*%
G36*
X121634859Y-69620185D02*
G01*
X121680614Y-69672989D01*
X121690558Y-69742147D01*
X121686897Y-69759094D01*
X121682334Y-69774797D01*
X121679500Y-69810811D01*
X121679500Y-70209169D01*
X121679501Y-70209191D01*
X121682335Y-70245205D01*
X121727129Y-70399388D01*
X121727131Y-70399393D01*
X121808865Y-70537598D01*
X121863182Y-70591915D01*
X121896666Y-70653236D01*
X121899500Y-70679595D01*
X121899500Y-71893330D01*
X121899499Y-71893348D01*
X121899499Y-72059054D01*
X121899498Y-72059054D01*
X121940423Y-72211785D01*
X121969358Y-72261900D01*
X121969359Y-72261904D01*
X121969360Y-72261904D01*
X122019479Y-72348714D01*
X122019481Y-72348717D01*
X122138349Y-72467585D01*
X122138355Y-72467590D01*
X124153181Y-74482416D01*
X124186666Y-74543739D01*
X124189500Y-74570097D01*
X124189500Y-74684697D01*
X124192356Y-74720991D01*
X124192357Y-74720997D01*
X124237504Y-74876390D01*
X124237505Y-74876393D01*
X124319881Y-75015684D01*
X124319887Y-75015692D01*
X124363180Y-75058984D01*
X124396666Y-75120307D01*
X124399500Y-75146666D01*
X124399500Y-77199903D01*
X124379815Y-77266942D01*
X124363181Y-77287584D01*
X122356431Y-79294334D01*
X122295108Y-79327819D01*
X122225416Y-79322835D01*
X122181069Y-79294334D01*
X119136819Y-76250084D01*
X119103334Y-76188761D01*
X119100500Y-76162403D01*
X119100500Y-75146666D01*
X119120185Y-75079627D01*
X119136820Y-75058984D01*
X119180112Y-75015692D01*
X119180117Y-75015687D01*
X119262494Y-74876395D01*
X119307643Y-74720993D01*
X119310500Y-74684690D01*
X119310500Y-74275310D01*
X119307643Y-74239007D01*
X119284749Y-74160208D01*
X119262495Y-74083609D01*
X119262494Y-74083605D01*
X119262493Y-74083604D01*
X119250089Y-74062630D01*
X119232906Y-73994909D01*
X119250091Y-73936384D01*
X119262032Y-73916194D01*
X119304504Y-73770000D01*
X118998352Y-73770000D01*
X118935233Y-73752732D01*
X118926395Y-73747506D01*
X118926393Y-73747505D01*
X118926389Y-73747503D01*
X118770997Y-73702357D01*
X118770991Y-73702356D01*
X118734697Y-73699500D01*
X118734690Y-73699500D01*
X118265310Y-73699500D01*
X118265302Y-73699500D01*
X118229008Y-73702356D01*
X118229002Y-73702357D01*
X118073610Y-73747503D01*
X118073605Y-73747506D01*
X118064766Y-73752732D01*
X118001648Y-73770000D01*
X117695496Y-73770000D01*
X117737968Y-73916194D01*
X117749911Y-73936389D01*
X117767092Y-74004113D01*
X117749911Y-74062628D01*
X117737506Y-74083604D01*
X117737504Y-74083609D01*
X117692357Y-74239002D01*
X117692356Y-74239008D01*
X117689500Y-74275302D01*
X117689500Y-74684697D01*
X117692356Y-74720991D01*
X117692357Y-74720997D01*
X117737504Y-74876390D01*
X117737505Y-74876393D01*
X117819881Y-75015684D01*
X117819887Y-75015692D01*
X117863180Y-75058984D01*
X117896666Y-75120307D01*
X117899500Y-75146666D01*
X117899500Y-76272473D01*
X117895275Y-76304566D01*
X117879499Y-76363443D01*
X117879499Y-76521554D01*
X117879498Y-76521554D01*
X117879499Y-76521557D01*
X117920423Y-76674285D01*
X117999481Y-76811216D01*
X117999483Y-76811218D01*
X120496083Y-79307818D01*
X120506694Y-79327251D01*
X120521196Y-79343987D01*
X120523113Y-79357319D01*
X120529568Y-79369141D01*
X120527988Y-79391227D01*
X120531140Y-79413145D01*
X120525544Y-79425397D01*
X120524584Y-79438833D01*
X120511314Y-79456558D01*
X120502116Y-79476701D01*
X120490783Y-79483984D01*
X120482712Y-79494766D01*
X120461967Y-79502503D01*
X120443338Y-79514476D01*
X120421418Y-79517627D01*
X120417248Y-79519183D01*
X120408403Y-79519499D01*
X120303443Y-79519499D01*
X120303439Y-79519499D01*
X120295832Y-79519500D01*
X120295831Y-79519499D01*
X120295831Y-79519500D01*
X113785719Y-79519500D01*
X113718680Y-79499815D01*
X113675235Y-79451795D01*
X113655052Y-79412185D01*
X113655051Y-79412184D01*
X113530109Y-79240213D01*
X113379786Y-79089890D01*
X113207817Y-78964949D01*
X113198504Y-78960204D01*
X113147707Y-78912230D01*
X113130912Y-78844409D01*
X113153449Y-78778274D01*
X113198507Y-78739232D01*
X113207555Y-78734622D01*
X113261716Y-78695270D01*
X113261717Y-78695270D01*
X112629408Y-78062962D01*
X112692993Y-78045925D01*
X112807007Y-77980099D01*
X112900099Y-77887007D01*
X112965925Y-77772993D01*
X112982962Y-77709409D01*
X113615270Y-78341717D01*
X113615270Y-78341716D01*
X113654622Y-78287554D01*
X113751095Y-78098217D01*
X113816757Y-77896130D01*
X113816757Y-77896127D01*
X113850000Y-77686246D01*
X113850000Y-77473753D01*
X113816757Y-77263872D01*
X113816757Y-77263869D01*
X113751095Y-77061782D01*
X113654624Y-76872449D01*
X113615270Y-76818282D01*
X113615269Y-76818282D01*
X112982962Y-77450590D01*
X112965925Y-77387007D01*
X112900099Y-77272993D01*
X112807007Y-77179901D01*
X112692993Y-77114075D01*
X112629409Y-77097037D01*
X113261716Y-76464728D01*
X113207547Y-76425373D01*
X113207547Y-76425372D01*
X113198500Y-76420763D01*
X113147706Y-76372788D01*
X113130912Y-76304966D01*
X113153451Y-76238832D01*
X113198508Y-76199793D01*
X113207816Y-76195051D01*
X113287007Y-76137515D01*
X113379786Y-76070109D01*
X113379788Y-76070106D01*
X113379792Y-76070104D01*
X113530104Y-75919792D01*
X113530106Y-75919788D01*
X113530109Y-75919786D01*
X113655048Y-75747820D01*
X113655049Y-75747819D01*
X113655051Y-75747816D01*
X113751557Y-75558412D01*
X113817246Y-75356243D01*
X113850500Y-75146287D01*
X113850500Y-74933713D01*
X113817246Y-74723757D01*
X113751557Y-74521588D01*
X113655051Y-74332184D01*
X113655049Y-74332181D01*
X113655048Y-74332179D01*
X113530109Y-74160213D01*
X113416569Y-74046673D01*
X113383084Y-73985350D01*
X113388068Y-73915658D01*
X113429940Y-73859725D01*
X113460915Y-73842810D01*
X113592331Y-73793796D01*
X113707546Y-73707546D01*
X113793796Y-73592331D01*
X113844091Y-73457483D01*
X113850500Y-73397873D01*
X113850500Y-73270000D01*
X117695496Y-73270000D01*
X118250000Y-73270000D01*
X118750000Y-73270000D01*
X119304504Y-73270000D01*
X119262031Y-73123804D01*
X119179721Y-72984625D01*
X119179714Y-72984616D01*
X119065383Y-72870285D01*
X119065374Y-72870278D01*
X118926195Y-72787968D01*
X118926190Y-72787966D01*
X118770918Y-72742855D01*
X118770912Y-72742854D01*
X118750000Y-72741209D01*
X118750000Y-73270000D01*
X118250000Y-73270000D01*
X118250000Y-72741210D01*
X118249999Y-72741209D01*
X118229087Y-72742854D01*
X118229081Y-72742855D01*
X118073809Y-72787966D01*
X118073804Y-72787968D01*
X117934625Y-72870278D01*
X117934616Y-72870285D01*
X117820285Y-72984616D01*
X117820278Y-72984625D01*
X117737968Y-73123804D01*
X117695496Y-73270000D01*
X113850500Y-73270000D01*
X113850499Y-72476943D01*
X113850499Y-71602129D01*
X113850498Y-71602123D01*
X113850497Y-71602116D01*
X113844091Y-71542517D01*
X113793796Y-71407669D01*
X113793795Y-71407668D01*
X113793793Y-71407664D01*
X113707547Y-71292455D01*
X113707544Y-71292452D01*
X113592335Y-71206206D01*
X113592328Y-71206202D01*
X113457482Y-71155908D01*
X113457483Y-71155908D01*
X113397883Y-71149501D01*
X113397881Y-71149500D01*
X113397873Y-71149500D01*
X113397865Y-71149500D01*
X113224500Y-71149500D01*
X113157461Y-71129815D01*
X113111706Y-71077011D01*
X113100500Y-71025500D01*
X113100500Y-69724500D01*
X113120185Y-69657461D01*
X113172989Y-69611706D01*
X113224500Y-69600500D01*
X121567820Y-69600500D01*
X121634859Y-69620185D01*
G37*
%TD.AperFunction*%
%TA.AperFunction,Conductor*%
G36*
X128657259Y-67583229D02*
G01*
X128685800Y-67582210D01*
X128691666Y-67585690D01*
X128698470Y-67586177D01*
X128721330Y-67603290D01*
X128745890Y-67617862D01*
X128748943Y-67623961D01*
X128754403Y-67628049D01*
X128764382Y-67654805D01*
X128777165Y-67680341D01*
X128777510Y-67690001D01*
X128778820Y-67693513D01*
X128778426Y-67715611D01*
X128774501Y-67752123D01*
X128774500Y-67752130D01*
X128774500Y-68197870D01*
X128774501Y-68197876D01*
X128780908Y-68257483D01*
X128831202Y-68392328D01*
X128831203Y-68392330D01*
X128899767Y-68483919D01*
X128924184Y-68549383D01*
X128924500Y-68558230D01*
X128924500Y-69174902D01*
X128904815Y-69241941D01*
X128888181Y-69262583D01*
X126443481Y-71707282D01*
X126443477Y-71707287D01*
X126419850Y-71748213D01*
X126419849Y-71748215D01*
X126364423Y-71844215D01*
X126323499Y-71996943D01*
X126323499Y-71996945D01*
X126323499Y-72165046D01*
X126323500Y-72165059D01*
X126323500Y-72255903D01*
X126303815Y-72322942D01*
X126287181Y-72343584D01*
X125750612Y-72880152D01*
X125689289Y-72913637D01*
X125619597Y-72908653D01*
X125575250Y-72880152D01*
X125565383Y-72870285D01*
X125565374Y-72870278D01*
X125426195Y-72787968D01*
X125426190Y-72787966D01*
X125270918Y-72742855D01*
X125270912Y-72742854D01*
X125250000Y-72741209D01*
X125250000Y-73329403D01*
X125241355Y-73358843D01*
X125234832Y-73388830D01*
X125231077Y-73393845D01*
X125230315Y-73396442D01*
X125213681Y-73417084D01*
X125147084Y-73483681D01*
X125085761Y-73517166D01*
X125059403Y-73520000D01*
X124940597Y-73520000D01*
X124873558Y-73500315D01*
X124852916Y-73483681D01*
X124786319Y-73417084D01*
X124752834Y-73355761D01*
X124750000Y-73329403D01*
X124750000Y-72741210D01*
X124749999Y-72741209D01*
X124729087Y-72742854D01*
X124729081Y-72742855D01*
X124573809Y-72787966D01*
X124573804Y-72787968D01*
X124434625Y-72870278D01*
X124434614Y-72870287D01*
X124424746Y-72880155D01*
X124363422Y-72913638D01*
X124293731Y-72908651D01*
X124249387Y-72880152D01*
X123136819Y-71767584D01*
X123103334Y-71706261D01*
X123100500Y-71679903D01*
X123100500Y-70734500D01*
X123120185Y-70667461D01*
X123172989Y-70621706D01*
X123224500Y-70610500D01*
X124326331Y-70610500D01*
X124326347Y-70610501D01*
X124333943Y-70610501D01*
X124492054Y-70610501D01*
X124492057Y-70610501D01*
X124644785Y-70569577D01*
X124700174Y-70537598D01*
X124781716Y-70490520D01*
X124893520Y-70378716D01*
X124893520Y-70378714D01*
X124903724Y-70368511D01*
X124903728Y-70368506D01*
X126733067Y-68539166D01*
X126794386Y-68505684D01*
X126864078Y-68510668D01*
X126895056Y-68527584D01*
X126982910Y-68593352D01*
X126982913Y-68593354D01*
X127117620Y-68643596D01*
X127117627Y-68643598D01*
X127177155Y-68649999D01*
X127177172Y-68650000D01*
X127300000Y-68650000D01*
X127300000Y-68124499D01*
X127302550Y-68115813D01*
X127301262Y-68106852D01*
X127312240Y-68082811D01*
X127319685Y-68057460D01*
X127326525Y-68051532D01*
X127330287Y-68043296D01*
X127352521Y-68029006D01*
X127372489Y-68011705D01*
X127383003Y-68009417D01*
X127389065Y-68005522D01*
X127424000Y-68000499D01*
X127526000Y-68000499D01*
X127593039Y-68020184D01*
X127638794Y-68072988D01*
X127650000Y-68124499D01*
X127650000Y-68650000D01*
X127772828Y-68650000D01*
X127772844Y-68649999D01*
X127832372Y-68643598D01*
X127832379Y-68643596D01*
X127967086Y-68593354D01*
X127967093Y-68593350D01*
X128082187Y-68507190D01*
X128082190Y-68507187D01*
X128168350Y-68392093D01*
X128168354Y-68392086D01*
X128218596Y-68257379D01*
X128218598Y-68257372D01*
X128224999Y-68197844D01*
X128225000Y-68197827D01*
X128225000Y-68150000D01*
X128190987Y-68150000D01*
X128179021Y-68146486D01*
X128166599Y-68147578D01*
X128146129Y-68136828D01*
X128123948Y-68130315D01*
X128115782Y-68120891D01*
X128104741Y-68115093D01*
X128093332Y-68094982D01*
X128078193Y-68077511D01*
X128076418Y-68065167D01*
X128070265Y-68054321D01*
X128071539Y-68031237D01*
X128068249Y-68008353D01*
X128073429Y-67997009D01*
X128074117Y-67984558D01*
X128087669Y-67965827D01*
X128097274Y-67944797D01*
X128108754Y-67936686D01*
X128115075Y-67927952D01*
X128135355Y-67917895D01*
X128145773Y-67910537D01*
X128152210Y-67908016D01*
X128239685Y-67884577D01*
X128289804Y-67855639D01*
X128376616Y-67805520D01*
X128488420Y-67693716D01*
X128488420Y-67693714D01*
X128498628Y-67683507D01*
X128498629Y-67683504D01*
X128567457Y-67614676D01*
X128592513Y-67600994D01*
X128615975Y-67584705D01*
X128622792Y-67584461D01*
X128628778Y-67581193D01*
X128657259Y-67583229D01*
G37*
%TD.AperFunction*%
%TD*%
M02*
