%TF.GenerationSoftware,KiCad,Pcbnew,9.0.7*%
%TF.CreationDate,2026-02-01T15:04:17-08:00*%
%TF.ProjectId,SensingDevice,53656e73-696e-4674-9465-766963652e6b,rev?*%
%TF.SameCoordinates,Original*%
%TF.FileFunction,Copper,L1,Top*%
%TF.FilePolarity,Positive*%
%FSLAX46Y46*%
G04 Gerber Fmt 4.6, Leading zero omitted, Abs format (unit mm)*
G04 Created by KiCad (PCBNEW 9.0.7) date 2026-02-01 15:04:17*
%MOMM*%
%LPD*%
G01*
G04 APERTURE LIST*
G04 Aperture macros list*
%AMRoundRect*
0 Rectangle with rounded corners*
0 $1 Rounding radius*
0 $2 $3 $4 $5 $6 $7 $8 $9 X,Y pos of 4 corners*
0 Add a 4 corners polygon primitive as box body*
4,1,4,$2,$3,$4,$5,$6,$7,$8,$9,$2,$3,0*
0 Add four circle primitives for the rounded corners*
1,1,$1+$1,$2,$3*
1,1,$1+$1,$4,$5*
1,1,$1+$1,$6,$7*
1,1,$1+$1,$8,$9*
0 Add four rect primitives between the rounded corners*
20,1,$1+$1,$2,$3,$4,$5,0*
20,1,$1+$1,$4,$5,$6,$7,0*
20,1,$1+$1,$6,$7,$8,$9,0*
20,1,$1+$1,$8,$9,$2,$3,0*%
G04 Aperture macros list end*
%TA.AperFunction,SMDPad,CuDef*%
%ADD10RoundRect,0.250000X-0.450000X0.262500X-0.450000X-0.262500X0.450000X-0.262500X0.450000X0.262500X0*%
%TD*%
%TA.AperFunction,SMDPad,CuDef*%
%ADD11RoundRect,0.250000X0.475000X-0.250000X0.475000X0.250000X-0.475000X0.250000X-0.475000X-0.250000X0*%
%TD*%
%TA.AperFunction,SMDPad,CuDef*%
%ADD12RoundRect,0.250000X0.450000X-0.262500X0.450000X0.262500X-0.450000X0.262500X-0.450000X-0.262500X0*%
%TD*%
%TA.AperFunction,SMDPad,CuDef*%
%ADD13R,0.254000X0.762000*%
%TD*%
%TA.AperFunction,SMDPad,CuDef*%
%ADD14R,1.905000X1.193800*%
%TD*%
%TA.AperFunction,SMDPad,CuDef*%
%ADD15RoundRect,0.500000X-1.000000X-0.500000X1.000000X-0.500000X1.000000X0.500000X-1.000000X0.500000X0*%
%TD*%
%TA.AperFunction,HeatsinkPad*%
%ADD16RoundRect,0.250000X-1.500000X-1.500000X1.500000X-1.500000X1.500000X1.500000X-1.500000X1.500000X0*%
%TD*%
%TA.AperFunction,SMDPad,CuDef*%
%ADD17RoundRect,0.250000X-0.900000X-0.400000X0.900000X-0.400000X0.900000X0.400000X-0.900000X0.400000X0*%
%TD*%
%TA.AperFunction,SMDPad,CuDef*%
%ADD18C,1.300000*%
%TD*%
%TA.AperFunction,ComponentPad*%
%ADD19R,1.700000X1.700000*%
%TD*%
%TA.AperFunction,ComponentPad*%
%ADD20C,1.700000*%
%TD*%
%TA.AperFunction,Conductor*%
%ADD21C,0.200000*%
%TD*%
G04 APERTURE END LIST*
D10*
%TO.P,R1,2*%
%TO.N,Net-(U1-GPIO6_A5_D5_SCL)*%
X119750000Y-99825000D03*
%TO.P,R1,1*%
%TO.N,/3V3*%
X119750000Y-98000000D03*
%TD*%
D11*
%TO.P,C1,1*%
%TO.N,/3V3*%
X119600000Y-90750000D03*
%TO.P,C1,2*%
%TO.N,/GND*%
X119600000Y-88850000D03*
%TD*%
D12*
%TO.P,R2,1*%
%TO.N,/3V3*%
X119750000Y-95662500D03*
%TO.P,R2,2*%
%TO.N,Net-(U1-GPIO4_A3_D3_SDA)*%
X119750000Y-93837500D03*
%TD*%
D13*
%TO.P,U2,1,SDA*%
%TO.N,Net-(U1-GPIO4_A3_D3_SDA)*%
X112249811Y-94219200D03*
%TO.P,U2,2,ADDR*%
%TO.N,/GND*%
X112749937Y-94219200D03*
%TO.P,U2,3,ALERT*%
%TO.N,unconnected-(U2-ALERT-Pad3)*%
X113250063Y-94219200D03*
%TO.P,U2,4,SCL*%
%TO.N,Net-(U1-GPIO6_A5_D5_SCL)*%
X113750189Y-94219200D03*
%TO.P,U2,5,VDD*%
%TO.N,/3V3*%
X113750189Y-91780800D03*
%TO.P,U2,6,NRESET*%
%TO.N,unconnected-(U2-NRESET-Pad6)*%
X113250063Y-91780800D03*
%TO.P,U2,7,R*%
%TO.N,/GND*%
X112749937Y-91780800D03*
%TO.P,U2,8,VSS*%
X112249811Y-91780800D03*
D14*
%TO.P,U2,9,EPAD*%
X113000000Y-93000000D03*
%TD*%
D15*
%TO.P,U1,1,GPIO1_A0_D0*%
%TO.N,Net-(J1-SIG)*%
X125400000Y-85280000D03*
%TO.P,U1,2,GPIO2_A1_D1*%
%TO.N,unconnected-(U1-GPIO2_A1_D1-Pad2)*%
X125400000Y-87820000D03*
%TO.P,U1,3,GPIO3_A2_D2*%
%TO.N,unconnected-(U1-GPIO3_A2_D2-Pad3)*%
X125400000Y-90360000D03*
%TO.P,U1,4,GPIO4_A3_D3*%
%TO.N,unconnected-(U1-GPIO4_A3_D3-Pad4)*%
X125400000Y-92900000D03*
%TO.P,U1,5,GPIO4_A3_D3_SDA*%
%TO.N,Net-(U1-GPIO4_A3_D3_SDA)*%
X125400000Y-95440000D03*
%TO.P,U1,6,GPIO6_A5_D5_SCL*%
%TO.N,Net-(U1-GPIO6_A5_D5_SCL)*%
X125400000Y-97980000D03*
%TO.P,U1,7,GPIO43_TX_D6*%
%TO.N,unconnected-(U1-GPIO43_TX_D6-Pad7)*%
X125400000Y-100520000D03*
%TO.P,U1,8,GPIO44_D7_RX*%
%TO.N,unconnected-(U1-GPIO44_D7_RX-Pad8)*%
X142400000Y-100520000D03*
%TO.P,U1,9,GPIO7_A8_D8_SCK*%
%TO.N,unconnected-(U1-GPIO7_A8_D8_SCK-Pad9)*%
X142400000Y-97980000D03*
%TO.P,U1,10,GPIO8_A9_D9_CIPO*%
%TO.N,unconnected-(U1-GPIO8_A9_D9_CIPO-Pad10)*%
X142400000Y-95440000D03*
%TO.P,U1,11,GPIO9_A10_D10_COPI*%
%TO.N,unconnected-(U1-GPIO9_A10_D10_COPI-Pad11)*%
X142400000Y-92900000D03*
%TO.P,U1,12,3V3*%
%TO.N,/3V3*%
X142400000Y-90360000D03*
%TO.P,U1,13,GND*%
%TO.N,/GND*%
X142400000Y-87820000D03*
%TO.P,U1,14,5V*%
%TO.N,unconnected-(U1-5V-Pad14)*%
X142400000Y-85280000D03*
D16*
%TO.P,U1,15,+BATT*%
%TO.N,unconnected-(U1-+BATT-Pad15)*%
X136000000Y-93500000D03*
D17*
%TO.P,U1,16,-BATT*%
%TO.N,unconnected-(U1--BATT-Pad16)*%
X129400000Y-92500000D03*
%TO.P,U1,17*%
%TO.N,N/C*%
X129400000Y-90600000D03*
D18*
%TO.P,U1,18*%
X132630000Y-84280000D03*
%TO.P,U1,19*%
X132630000Y-86860000D03*
%TO.P,U1,20*%
X132630000Y-89400000D03*
%TO.P,U1,21*%
X135170000Y-89400000D03*
%TO.P,U1,22*%
X135170000Y-86860000D03*
%TO.P,U1,23*%
X135170000Y-84280000D03*
%TD*%
D19*
%TO.P,J2,1,3V3*%
%TO.N,/3V3*%
X156000000Y-90275000D03*
D20*
%TO.P,J2,2,GND*%
%TO.N,/GND*%
X156000000Y-87735000D03*
%TD*%
D19*
%TO.P,J1,1,VCC*%
%TO.N,/3V3*%
X133500000Y-77040000D03*
D20*
%TO.P,J1,2,SIG*%
%TO.N,Net-(J1-SIG)*%
X133500000Y-74500000D03*
%TO.P,J1,3,GND*%
%TO.N,/GND*%
X133500000Y-71960000D03*
%TD*%
D21*
%TO.N,/3V3*%
X115868300Y-91780800D02*
X113750189Y-91780800D01*
X119750000Y-95662500D02*
X115868300Y-91780800D01*
%TO.N,/GND*%
X119600000Y-85860000D02*
X133500000Y-71960000D01*
X119600000Y-88850000D02*
X119600000Y-85860000D01*
X112749937Y-91780800D02*
X112749937Y-91170926D01*
X112749937Y-91170926D02*
X115070863Y-88850000D01*
X115070863Y-88850000D02*
X119600000Y-88850000D01*
X112749937Y-91780800D02*
X112249811Y-91780800D01*
X112749937Y-94219200D02*
X112749937Y-91780800D01*
%TO.N,Net-(U1-GPIO6_A5_D5_SCL)*%
X114144200Y-94219200D02*
X113750189Y-94219200D01*
X119750000Y-99825000D02*
X114144200Y-94219200D01*
X121595000Y-97980000D02*
X119750000Y-99825000D01*
X125400000Y-97980000D02*
X121595000Y-97980000D01*
%TO.N,/3V3*%
X119750000Y-95662500D02*
X119750000Y-98000000D01*
%TO.N,Net-(U1-GPIO4_A3_D3_SDA)*%
X126739058Y-101821000D02*
X119241737Y-101821000D01*
X127201000Y-101359058D02*
X126739058Y-101821000D01*
X112249811Y-94829074D02*
X112249811Y-94219200D01*
X127201000Y-95741000D02*
X127201000Y-101359058D01*
X126900000Y-95440000D02*
X127201000Y-95741000D01*
X119241737Y-101821000D02*
X112249811Y-94829074D01*
X125400000Y-95440000D02*
X126900000Y-95440000D01*
%TO.N,/3V3*%
X134651000Y-74023240D02*
X134651000Y-75889000D01*
X133976760Y-73349000D02*
X134651000Y-74023240D01*
X133023240Y-73349000D02*
X133976760Y-73349000D01*
X123599000Y-86751000D02*
X123599000Y-82773240D01*
X119600000Y-90750000D02*
X123599000Y-86751000D01*
X123599000Y-82773240D02*
X133023240Y-73349000D01*
X134651000Y-75889000D02*
X133500000Y-77040000D01*
X118569200Y-91780800D02*
X119600000Y-90750000D01*
X113750189Y-91780800D02*
X118569200Y-91780800D01*
X119770000Y-97980000D02*
X119750000Y-98000000D01*
%TO.N,Net-(U1-GPIO4_A3_D3_SDA)*%
X121352500Y-95440000D02*
X119750000Y-93837500D01*
X125400000Y-95440000D02*
X121352500Y-95440000D01*
%TO.N,/3V3*%
X142299942Y-90360000D02*
X142400000Y-90360000D01*
%TO.N,Net-(J1-SIG)*%
X125400000Y-82600000D02*
X125400000Y-85280000D01*
X133500000Y-74500000D02*
X125400000Y-82600000D01*
%TO.N,/3V3*%
X140500000Y-89500000D02*
X141360000Y-90360000D01*
X141360000Y-90360000D02*
X142400000Y-90360000D01*
X133500000Y-80987100D02*
X140500000Y-87987100D01*
X133500000Y-77040000D02*
X133500000Y-80987100D01*
X140500000Y-87987100D02*
X140500000Y-89500000D01*
%TO.N,/GND*%
X140599000Y-79059000D02*
X140599000Y-87519000D01*
X133500000Y-71960000D02*
X140599000Y-79059000D01*
%TO.N,/3V3*%
X142485000Y-90275000D02*
X142400000Y-90360000D01*
X156000000Y-90275000D02*
X142485000Y-90275000D01*
%TO.N,/GND*%
X142485000Y-87735000D02*
X142400000Y-87820000D01*
X156000000Y-87735000D02*
X142485000Y-87735000D01*
X140900000Y-87820000D02*
X142400000Y-87820000D01*
X140599000Y-87519000D02*
X140900000Y-87820000D01*
%TD*%
%TA.AperFunction,NonConductor*%
G36*
X163945099Y-69219685D02*
G01*
X163990854Y-69272489D01*
X164002043Y-69321922D01*
X164597894Y-104874357D01*
X164579335Y-104941717D01*
X164527305Y-104988350D01*
X164474340Y-105000434D01*
X106924429Y-105199569D01*
X106857322Y-105180117D01*
X106811385Y-105127471D01*
X106800000Y-105075570D01*
X106800000Y-92355235D01*
X111547000Y-92355235D01*
X111547000Y-93644770D01*
X111547001Y-93644776D01*
X111553408Y-93704381D01*
X111553409Y-93704383D01*
X111603704Y-93839231D01*
X111603706Y-93839233D01*
X111607143Y-93845527D01*
X111622311Y-93904955D01*
X111622311Y-94648070D01*
X111622312Y-94648076D01*
X111628719Y-94707681D01*
X111641492Y-94741925D01*
X111649310Y-94785259D01*
X111649310Y-94908128D01*
X111649309Y-94908128D01*
X111690234Y-95060859D01*
X111713236Y-95100700D01*
X111714520Y-95102923D01*
X111743314Y-95152796D01*
X111769290Y-95197788D01*
X111769292Y-95197791D01*
X111888160Y-95316659D01*
X111888165Y-95316663D01*
X118873021Y-102301520D01*
X118873023Y-102301521D01*
X118873027Y-102301524D01*
X119009946Y-102380573D01*
X119009953Y-102380577D01*
X119162680Y-102421501D01*
X119162682Y-102421501D01*
X119328391Y-102421501D01*
X119328407Y-102421500D01*
X126652389Y-102421500D01*
X126652405Y-102421501D01*
X126660001Y-102421501D01*
X126818112Y-102421501D01*
X126818115Y-102421501D01*
X126970843Y-102380577D01*
X127020962Y-102351639D01*
X127107774Y-102301520D01*
X127219578Y-102189716D01*
X127219579Y-102189714D01*
X127681520Y-101727774D01*
X127760577Y-101590842D01*
X127801501Y-101438115D01*
X127801501Y-101280000D01*
X127801501Y-101272405D01*
X127801500Y-101272387D01*
X127801500Y-95661945D01*
X127801500Y-95661943D01*
X127760577Y-95509216D01*
X127760577Y-95509215D01*
X127690969Y-95388651D01*
X127690193Y-95387306D01*
X127690180Y-95387283D01*
X127681522Y-95372286D01*
X127681518Y-95372281D01*
X127565397Y-95256160D01*
X127565374Y-95256139D01*
X127436818Y-95127583D01*
X127403333Y-95066260D01*
X127400499Y-95039902D01*
X127400499Y-94881971D01*
X127400499Y-94881964D01*
X127389886Y-94762582D01*
X127333909Y-94566951D01*
X127239698Y-94386593D01*
X127126983Y-94248359D01*
X127099875Y-94183965D01*
X127111884Y-94115135D01*
X127126981Y-94091642D01*
X127239698Y-93953407D01*
X127333909Y-93773049D01*
X127389886Y-93577418D01*
X127400500Y-93458037D01*
X127400499Y-92341964D01*
X127389886Y-92222582D01*
X127333909Y-92026951D01*
X127239698Y-91846593D01*
X127126983Y-91708359D01*
X127099875Y-91643965D01*
X127111884Y-91575135D01*
X127126981Y-91551642D01*
X127239698Y-91413407D01*
X127333909Y-91233049D01*
X127389886Y-91037418D01*
X127400500Y-90918037D01*
X127400499Y-90149983D01*
X127749500Y-90149983D01*
X127749500Y-91050001D01*
X127749501Y-91050019D01*
X127760000Y-91152796D01*
X127760001Y-91152799D01*
X127795525Y-91260001D01*
X127815186Y-91319334D01*
X127907287Y-91468655D01*
X127907289Y-91468657D01*
X127910795Y-91473091D01*
X127936934Y-91537887D01*
X127923892Y-91606529D01*
X127910795Y-91626909D01*
X127907289Y-91631342D01*
X127815187Y-91780663D01*
X127815186Y-91780666D01*
X127760001Y-91947203D01*
X127760001Y-91947204D01*
X127760000Y-91947204D01*
X127749500Y-92049983D01*
X127749500Y-92950001D01*
X127749501Y-92950019D01*
X127760000Y-93052796D01*
X127760001Y-93052799D01*
X127815185Y-93219331D01*
X127815186Y-93219334D01*
X127907288Y-93368656D01*
X128031344Y-93492712D01*
X128180666Y-93584814D01*
X128347203Y-93639999D01*
X128449991Y-93650500D01*
X130350008Y-93650499D01*
X130452797Y-93639999D01*
X130619334Y-93584814D01*
X130768656Y-93492712D01*
X130892712Y-93368656D01*
X130984814Y-93219334D01*
X131039999Y-93052797D01*
X131050500Y-92950009D01*
X131050499Y-92049992D01*
X131048146Y-92026954D01*
X131041249Y-91959435D01*
X131040807Y-91955122D01*
X131040283Y-91949983D01*
X133749500Y-91949983D01*
X133749500Y-95050001D01*
X133749501Y-95050018D01*
X133760000Y-95152796D01*
X133760001Y-95152799D01*
X133815185Y-95319331D01*
X133815187Y-95319336D01*
X133834095Y-95349991D01*
X133907288Y-95468656D01*
X134031344Y-95592712D01*
X134180666Y-95684814D01*
X134347203Y-95739999D01*
X134449991Y-95750500D01*
X137550008Y-95750499D01*
X137652797Y-95739999D01*
X137819334Y-95684814D01*
X137968656Y-95592712D01*
X138092712Y-95468656D01*
X138184814Y-95319334D01*
X138239999Y-95152797D01*
X138250500Y-95050009D01*
X138250499Y-91949992D01*
X138239999Y-91847203D01*
X138184814Y-91680666D01*
X138092712Y-91531344D01*
X137968656Y-91407288D01*
X137875888Y-91350069D01*
X137819336Y-91315187D01*
X137819331Y-91315185D01*
X137817862Y-91314698D01*
X137652797Y-91260001D01*
X137652795Y-91260000D01*
X137550010Y-91249500D01*
X134449998Y-91249500D01*
X134449981Y-91249501D01*
X134347203Y-91260000D01*
X134347200Y-91260001D01*
X134180668Y-91315185D01*
X134180663Y-91315187D01*
X134031342Y-91407289D01*
X133907289Y-91531342D01*
X133815187Y-91680663D01*
X133815185Y-91680668D01*
X133812460Y-91688891D01*
X133760001Y-91847203D01*
X133760001Y-91847204D01*
X133760000Y-91847204D01*
X133749500Y-91949983D01*
X131040283Y-91949983D01*
X131039999Y-91947203D01*
X130984814Y-91780666D01*
X130892712Y-91631344D01*
X130892707Y-91631339D01*
X130889209Y-91626915D01*
X130863066Y-91562121D01*
X130876103Y-91493478D01*
X130889209Y-91473085D01*
X130892703Y-91468664D01*
X130892712Y-91468656D01*
X130984814Y-91319334D01*
X131039999Y-91152797D01*
X131050500Y-91050009D01*
X131050499Y-90149992D01*
X131039999Y-90047203D01*
X130984814Y-89880666D01*
X130892712Y-89731344D01*
X130768656Y-89607288D01*
X130619334Y-89515186D01*
X130452797Y-89460001D01*
X130452795Y-89460000D01*
X130350010Y-89449500D01*
X128449998Y-89449500D01*
X128449981Y-89449501D01*
X128347203Y-89460000D01*
X128347200Y-89460001D01*
X128180668Y-89515185D01*
X128180663Y-89515187D01*
X128031342Y-89607289D01*
X127907289Y-89731342D01*
X127815187Y-89880663D01*
X127815185Y-89880668D01*
X127806365Y-89907285D01*
X127760001Y-90047203D01*
X127760001Y-90047204D01*
X127760000Y-90047204D01*
X127749500Y-90149983D01*
X127400499Y-90149983D01*
X127400499Y-89801964D01*
X127389886Y-89682582D01*
X127333909Y-89486951D01*
X127239698Y-89306593D01*
X127126983Y-89168359D01*
X127099875Y-89103965D01*
X127111884Y-89035135D01*
X127126981Y-89011642D01*
X127239698Y-88873407D01*
X127333909Y-88693049D01*
X127389886Y-88497418D01*
X127400500Y-88378037D01*
X127400499Y-87261964D01*
X127389886Y-87142582D01*
X127333909Y-86946951D01*
X127241189Y-86769448D01*
X131479500Y-86769448D01*
X131479500Y-86950551D01*
X131507829Y-87129410D01*
X131563787Y-87301636D01*
X131563788Y-87301639D01*
X131646006Y-87462997D01*
X131752441Y-87609494D01*
X131752445Y-87609499D01*
X131880500Y-87737554D01*
X131880505Y-87737558D01*
X131931808Y-87774831D01*
X132027006Y-87843996D01*
X132132484Y-87897740D01*
X132188360Y-87926211D01*
X132188363Y-87926212D01*
X132274476Y-87954191D01*
X132360591Y-87982171D01*
X132433639Y-87993740D01*
X132520678Y-88007527D01*
X132583813Y-88037456D01*
X132620744Y-88096768D01*
X132619746Y-88166631D01*
X132581136Y-88224863D01*
X132520678Y-88252473D01*
X132360589Y-88277829D01*
X132188363Y-88333787D01*
X132188360Y-88333788D01*
X132027002Y-88416006D01*
X131880505Y-88522441D01*
X131880500Y-88522445D01*
X131752445Y-88650500D01*
X131752441Y-88650505D01*
X131646006Y-88797002D01*
X131563788Y-88958360D01*
X131563787Y-88958363D01*
X131507829Y-89130589D01*
X131479500Y-89309448D01*
X131479500Y-89490551D01*
X131507829Y-89669410D01*
X131563787Y-89841636D01*
X131563788Y-89841639D01*
X131597239Y-89907288D01*
X131638155Y-89987590D01*
X131646006Y-90002997D01*
X131752441Y-90149494D01*
X131752445Y-90149499D01*
X131880500Y-90277554D01*
X131880505Y-90277558D01*
X131976366Y-90347204D01*
X132027006Y-90383996D01*
X132132484Y-90437740D01*
X132188360Y-90466211D01*
X132188363Y-90466212D01*
X132274476Y-90494191D01*
X132360591Y-90522171D01*
X132443429Y-90535291D01*
X132539449Y-90550500D01*
X132539454Y-90550500D01*
X132720551Y-90550500D01*
X132807259Y-90536765D01*
X132899409Y-90522171D01*
X133071639Y-90466211D01*
X133232994Y-90383996D01*
X133379501Y-90277553D01*
X133507553Y-90149501D01*
X133613996Y-90002994D01*
X133696211Y-89841639D01*
X133752171Y-89669409D01*
X133766482Y-89579054D01*
X133777527Y-89509321D01*
X133807456Y-89446186D01*
X133866768Y-89409255D01*
X133936630Y-89410253D01*
X133994863Y-89448863D01*
X134022473Y-89509321D01*
X134047829Y-89669410D01*
X134103787Y-89841636D01*
X134103788Y-89841639D01*
X134137239Y-89907288D01*
X134178155Y-89987590D01*
X134186006Y-90002997D01*
X134292441Y-90149494D01*
X134292445Y-90149499D01*
X134420500Y-90277554D01*
X134420505Y-90277558D01*
X134516366Y-90347204D01*
X134567006Y-90383996D01*
X134672484Y-90437740D01*
X134728360Y-90466211D01*
X134728363Y-90466212D01*
X134814476Y-90494191D01*
X134900591Y-90522171D01*
X134983429Y-90535291D01*
X135079449Y-90550500D01*
X135079454Y-90550500D01*
X135260551Y-90550500D01*
X135347259Y-90536765D01*
X135439409Y-90522171D01*
X135611639Y-90466211D01*
X135772994Y-90383996D01*
X135919501Y-90277553D01*
X136047553Y-90149501D01*
X136153996Y-90002994D01*
X136236211Y-89841639D01*
X136292171Y-89669409D01*
X136306765Y-89577259D01*
X136320500Y-89490551D01*
X136320500Y-89309448D01*
X136304019Y-89205397D01*
X136292171Y-89130591D01*
X136243633Y-88981203D01*
X136236212Y-88958363D01*
X136236211Y-88958360D01*
X136201405Y-88890051D01*
X136153996Y-88797006D01*
X136124625Y-88756580D01*
X136047558Y-88650505D01*
X136047554Y-88650500D01*
X135919499Y-88522445D01*
X135919494Y-88522441D01*
X135772997Y-88416006D01*
X135772996Y-88416005D01*
X135772994Y-88416004D01*
X135698478Y-88378036D01*
X135611639Y-88333788D01*
X135611636Y-88333787D01*
X135439410Y-88277829D01*
X135279321Y-88252473D01*
X135216186Y-88222544D01*
X135179255Y-88163232D01*
X135180253Y-88093370D01*
X135218863Y-88035137D01*
X135279321Y-88007527D01*
X135349425Y-87996422D01*
X135439409Y-87982171D01*
X135611639Y-87926211D01*
X135772994Y-87843996D01*
X135919501Y-87737553D01*
X136047553Y-87609501D01*
X136153996Y-87462994D01*
X136236211Y-87301639D01*
X136292171Y-87129409D01*
X136308363Y-87027179D01*
X136320500Y-86950551D01*
X136320500Y-86769448D01*
X136295069Y-86608891D01*
X136292171Y-86590591D01*
X136246425Y-86449797D01*
X136236212Y-86418363D01*
X136236211Y-86418360D01*
X136194757Y-86337003D01*
X136153996Y-86257006D01*
X136083588Y-86160097D01*
X136047558Y-86110505D01*
X136047554Y-86110500D01*
X135919499Y-85982445D01*
X135919494Y-85982441D01*
X135772997Y-85876006D01*
X135772996Y-85876005D01*
X135772994Y-85876004D01*
X135698480Y-85838037D01*
X135611639Y-85793788D01*
X135611636Y-85793787D01*
X135439410Y-85737829D01*
X135260551Y-85709500D01*
X135260546Y-85709500D01*
X135079454Y-85709500D01*
X135079449Y-85709500D01*
X134900589Y-85737829D01*
X134728363Y-85793787D01*
X134728360Y-85793788D01*
X134567002Y-85876006D01*
X134420505Y-85982441D01*
X134420500Y-85982445D01*
X134292445Y-86110500D01*
X134292441Y-86110505D01*
X134186006Y-86257002D01*
X134103788Y-86418360D01*
X134103787Y-86418363D01*
X134047829Y-86590589D01*
X134022473Y-86750678D01*
X133992544Y-86813813D01*
X133933232Y-86850744D01*
X133863369Y-86849746D01*
X133805137Y-86811136D01*
X133777527Y-86750678D01*
X133755069Y-86608891D01*
X133752171Y-86590591D01*
X133706425Y-86449797D01*
X133696212Y-86418363D01*
X133696211Y-86418360D01*
X133654757Y-86337003D01*
X133613996Y-86257006D01*
X133543588Y-86160097D01*
X133507558Y-86110505D01*
X133507554Y-86110500D01*
X133379499Y-85982445D01*
X133379494Y-85982441D01*
X133232997Y-85876006D01*
X133232996Y-85876005D01*
X133232994Y-85876004D01*
X133158480Y-85838037D01*
X133071639Y-85793788D01*
X133071636Y-85793787D01*
X132899410Y-85737829D01*
X132720551Y-85709500D01*
X132720546Y-85709500D01*
X132539454Y-85709500D01*
X132539449Y-85709500D01*
X132360589Y-85737829D01*
X132188363Y-85793787D01*
X132188360Y-85793788D01*
X132027002Y-85876006D01*
X131880505Y-85982441D01*
X131880500Y-85982445D01*
X131752445Y-86110500D01*
X131752441Y-86110505D01*
X131646006Y-86257002D01*
X131563788Y-86418360D01*
X131563787Y-86418363D01*
X131507829Y-86590589D01*
X131479500Y-86769448D01*
X127241189Y-86769448D01*
X127239698Y-86766593D01*
X127126983Y-86628359D01*
X127099875Y-86563965D01*
X127111884Y-86495135D01*
X127126981Y-86471642D01*
X127239698Y-86333407D01*
X127333909Y-86153049D01*
X127389886Y-85957418D01*
X127400500Y-85838037D01*
X127400499Y-84721964D01*
X127389886Y-84602582D01*
X127333909Y-84406951D01*
X127239698Y-84226593D01*
X127187684Y-84162803D01*
X127111109Y-84068890D01*
X126953409Y-83940304D01*
X126953410Y-83940304D01*
X126953407Y-83940302D01*
X126773049Y-83846091D01*
X126773048Y-83846090D01*
X126773045Y-83846089D01*
X126655829Y-83812550D01*
X126577418Y-83790114D01*
X126577415Y-83790113D01*
X126577413Y-83790113D01*
X126504631Y-83783642D01*
X126458037Y-83779500D01*
X126458033Y-83779500D01*
X126124500Y-83779500D01*
X126057461Y-83759815D01*
X126011706Y-83707011D01*
X126000500Y-83655500D01*
X126000500Y-82900096D01*
X126020185Y-82833057D01*
X126036814Y-82812420D01*
X131937821Y-76911412D01*
X131999142Y-76877929D01*
X132068834Y-76882913D01*
X132124767Y-76924785D01*
X132149184Y-76990249D01*
X132149500Y-76999095D01*
X132149500Y-77937870D01*
X132149501Y-77937876D01*
X132155908Y-77997483D01*
X132206202Y-78132328D01*
X132206206Y-78132335D01*
X132292452Y-78247544D01*
X132292455Y-78247547D01*
X132407664Y-78333793D01*
X132407671Y-78333797D01*
X132452618Y-78350561D01*
X132542517Y-78384091D01*
X132602127Y-78390500D01*
X132775500Y-78390499D01*
X132842539Y-78410183D01*
X132888294Y-78462987D01*
X132899500Y-78514499D01*
X132899500Y-80900430D01*
X132899499Y-80900448D01*
X132899499Y-81066154D01*
X132899498Y-81066154D01*
X132940423Y-81218885D01*
X132969358Y-81269000D01*
X132969359Y-81269004D01*
X132969360Y-81269004D01*
X133019479Y-81355814D01*
X133019481Y-81355817D01*
X133138349Y-81474685D01*
X133138355Y-81474690D01*
X134706446Y-83042781D01*
X134739931Y-83104104D01*
X134734947Y-83173796D01*
X134693075Y-83229729D01*
X134675061Y-83240946D01*
X134567004Y-83296004D01*
X134420505Y-83402441D01*
X134420500Y-83402445D01*
X134292445Y-83530500D01*
X134292441Y-83530505D01*
X134186006Y-83677002D01*
X134103788Y-83838360D01*
X134103787Y-83838363D01*
X134047829Y-84010589D01*
X134022473Y-84170678D01*
X133992544Y-84233813D01*
X133933232Y-84270744D01*
X133863369Y-84269746D01*
X133805137Y-84231136D01*
X133777527Y-84170678D01*
X133761405Y-84068891D01*
X133752171Y-84010591D01*
X133696211Y-83838361D01*
X133696211Y-83838360D01*
X133659591Y-83766491D01*
X133613996Y-83677006D01*
X133558957Y-83601251D01*
X133507558Y-83530505D01*
X133507554Y-83530500D01*
X133379499Y-83402445D01*
X133379494Y-83402441D01*
X133232997Y-83296006D01*
X133232996Y-83296005D01*
X133232994Y-83296004D01*
X133181300Y-83269664D01*
X133071639Y-83213788D01*
X133071636Y-83213787D01*
X132899410Y-83157829D01*
X132720551Y-83129500D01*
X132720546Y-83129500D01*
X132539454Y-83129500D01*
X132539449Y-83129500D01*
X132360589Y-83157829D01*
X132188363Y-83213787D01*
X132188360Y-83213788D01*
X132027002Y-83296006D01*
X131880505Y-83402441D01*
X131880500Y-83402445D01*
X131752445Y-83530500D01*
X131752441Y-83530505D01*
X131646006Y-83677002D01*
X131563788Y-83838360D01*
X131563787Y-83838363D01*
X131507829Y-84010589D01*
X131479500Y-84189448D01*
X131479500Y-84370551D01*
X131507829Y-84549410D01*
X131563787Y-84721636D01*
X131563788Y-84721639D01*
X131646006Y-84882997D01*
X131752441Y-85029494D01*
X131752445Y-85029499D01*
X131880500Y-85157554D01*
X131880505Y-85157558D01*
X132008287Y-85250396D01*
X132027006Y-85263996D01*
X132132484Y-85317740D01*
X132188360Y-85346211D01*
X132188363Y-85346212D01*
X132274476Y-85374191D01*
X132360591Y-85402171D01*
X132443429Y-85415291D01*
X132539449Y-85430500D01*
X132539454Y-85430500D01*
X132720551Y-85430500D01*
X132807259Y-85416765D01*
X132899409Y-85402171D01*
X133071639Y-85346211D01*
X133232994Y-85263996D01*
X133379501Y-85157553D01*
X133507553Y-85029501D01*
X133613996Y-84882994D01*
X133696211Y-84721639D01*
X133752171Y-84549409D01*
X133774734Y-84406954D01*
X133777527Y-84389321D01*
X133807456Y-84326186D01*
X133866768Y-84289255D01*
X133936630Y-84290253D01*
X133994863Y-84328863D01*
X134022473Y-84389321D01*
X134047829Y-84549410D01*
X134103787Y-84721636D01*
X134103788Y-84721639D01*
X134186006Y-84882997D01*
X134292441Y-85029494D01*
X134292445Y-85029499D01*
X134420500Y-85157554D01*
X134420505Y-85157558D01*
X134548287Y-85250396D01*
X134567006Y-85263996D01*
X134672484Y-85317740D01*
X134728360Y-85346211D01*
X134728363Y-85346212D01*
X134814476Y-85374191D01*
X134900591Y-85402171D01*
X134983429Y-85415291D01*
X135079449Y-85430500D01*
X135079454Y-85430500D01*
X135260551Y-85430500D01*
X135347259Y-85416765D01*
X135439409Y-85402171D01*
X135611639Y-85346211D01*
X135772994Y-85263996D01*
X135919501Y-85157553D01*
X136047553Y-85029501D01*
X136153996Y-84882994D01*
X136209053Y-84774938D01*
X136257026Y-84724143D01*
X136324847Y-84707348D01*
X136390982Y-84729885D01*
X136407218Y-84743553D01*
X139863181Y-88199516D01*
X139896666Y-88260839D01*
X139899500Y-88287197D01*
X139899500Y-89413330D01*
X139899499Y-89413348D01*
X139899499Y-89579054D01*
X139899498Y-89579054D01*
X139940304Y-89731344D01*
X139940423Y-89731785D01*
X139956713Y-89760000D01*
X139956714Y-89760002D01*
X139956715Y-89760002D01*
X140003846Y-89841636D01*
X140019479Y-89868714D01*
X140019481Y-89868717D01*
X140138349Y-89987585D01*
X140138355Y-89987590D01*
X140363181Y-90212416D01*
X140396666Y-90273739D01*
X140399500Y-90300097D01*
X140399500Y-90918028D01*
X140399501Y-90918034D01*
X140410113Y-91037415D01*
X140466089Y-91233045D01*
X140466090Y-91233048D01*
X140466091Y-91233049D01*
X140560302Y-91413407D01*
X140608963Y-91473085D01*
X140673015Y-91551639D01*
X140700124Y-91616036D01*
X140688115Y-91684865D01*
X140673015Y-91708361D01*
X140614057Y-91780668D01*
X140560302Y-91846593D01*
X140559983Y-91847204D01*
X140466089Y-92026954D01*
X140410114Y-92222583D01*
X140410113Y-92222586D01*
X140399500Y-92341966D01*
X140399500Y-93458028D01*
X140399501Y-93458034D01*
X140410113Y-93577415D01*
X140466089Y-93773045D01*
X140466090Y-93773048D01*
X140466091Y-93773049D01*
X140560302Y-93953407D01*
X140560304Y-93953409D01*
X140673015Y-94091639D01*
X140700124Y-94156036D01*
X140688115Y-94224865D01*
X140673015Y-94248361D01*
X140560304Y-94386590D01*
X140466089Y-94566954D01*
X140421332Y-94723376D01*
X140413826Y-94749611D01*
X140410114Y-94762583D01*
X140410113Y-94762586D01*
X140399500Y-94881966D01*
X140399500Y-95998028D01*
X140399501Y-95998034D01*
X140410113Y-96117415D01*
X140466089Y-96313045D01*
X140466090Y-96313048D01*
X140466091Y-96313049D01*
X140560302Y-96493407D01*
X140580120Y-96517712D01*
X140673015Y-96631639D01*
X140700124Y-96696036D01*
X140688115Y-96764865D01*
X140673015Y-96788361D01*
X140561575Y-96925032D01*
X140560302Y-96926593D01*
X140529724Y-96985132D01*
X140466089Y-97106954D01*
X140421332Y-97263376D01*
X140413826Y-97289611D01*
X140410114Y-97302583D01*
X140410113Y-97302586D01*
X140406018Y-97348649D01*
X140399838Y-97418168D01*
X140399500Y-97421966D01*
X140399500Y-98538028D01*
X140399501Y-98538034D01*
X140410113Y-98657415D01*
X140466089Y-98853045D01*
X140466090Y-98853048D01*
X140466091Y-98853049D01*
X140560302Y-99033407D01*
X140560304Y-99033409D01*
X140673015Y-99171639D01*
X140700124Y-99236036D01*
X140688115Y-99304865D01*
X140673015Y-99328361D01*
X140584093Y-99437416D01*
X140560302Y-99466593D01*
X140529742Y-99525097D01*
X140466089Y-99646954D01*
X140410114Y-99842583D01*
X140410113Y-99842586D01*
X140399500Y-99961966D01*
X140399500Y-101078028D01*
X140399501Y-101078034D01*
X140410113Y-101197415D01*
X140466089Y-101393045D01*
X140466090Y-101393048D01*
X140466091Y-101393049D01*
X140560302Y-101573407D01*
X140574519Y-101590843D01*
X140688890Y-101731109D01*
X140782803Y-101807684D01*
X140846593Y-101859698D01*
X141026951Y-101953909D01*
X141222582Y-102009886D01*
X141341963Y-102020500D01*
X143458036Y-102020499D01*
X143577418Y-102009886D01*
X143773049Y-101953909D01*
X143953407Y-101859698D01*
X144111109Y-101731109D01*
X144239698Y-101573407D01*
X144333909Y-101393049D01*
X144389886Y-101197418D01*
X144400500Y-101078037D01*
X144400499Y-99961964D01*
X144389886Y-99842582D01*
X144333909Y-99646951D01*
X144239698Y-99466593D01*
X144126983Y-99328359D01*
X144099875Y-99263965D01*
X144111884Y-99195135D01*
X144126981Y-99171642D01*
X144239698Y-99033407D01*
X144333909Y-98853049D01*
X144389886Y-98657418D01*
X144400500Y-98538037D01*
X144400499Y-97421964D01*
X144389886Y-97302582D01*
X144333909Y-97106951D01*
X144239698Y-96926593D01*
X144126983Y-96788359D01*
X144099875Y-96723965D01*
X144111884Y-96655135D01*
X144126981Y-96631642D01*
X144239698Y-96493407D01*
X144333909Y-96313049D01*
X144389886Y-96117418D01*
X144400500Y-95998037D01*
X144400499Y-94881964D01*
X144389886Y-94762582D01*
X144333909Y-94566951D01*
X144239698Y-94386593D01*
X144126983Y-94248359D01*
X144099875Y-94183965D01*
X144111884Y-94115135D01*
X144126981Y-94091642D01*
X144239698Y-93953407D01*
X144333909Y-93773049D01*
X144389886Y-93577418D01*
X144400500Y-93458037D01*
X144400499Y-92341964D01*
X144389886Y-92222582D01*
X144333909Y-92026951D01*
X144239698Y-91846593D01*
X144126983Y-91708359D01*
X144099875Y-91643965D01*
X144111884Y-91575135D01*
X144126981Y-91551642D01*
X144239698Y-91413407D01*
X144333909Y-91233049D01*
X144389886Y-91037418D01*
X144394233Y-90988518D01*
X144419777Y-90923487D01*
X144476425Y-90882587D01*
X144517746Y-90875500D01*
X154525501Y-90875500D01*
X154592540Y-90895185D01*
X154638295Y-90947989D01*
X154649501Y-90999500D01*
X154649501Y-91172876D01*
X154655908Y-91232483D01*
X154706202Y-91367328D01*
X154706206Y-91367335D01*
X154792452Y-91482544D01*
X154792455Y-91482547D01*
X154907664Y-91568793D01*
X154907671Y-91568797D01*
X155042517Y-91619091D01*
X155042516Y-91619091D01*
X155049444Y-91619835D01*
X155102127Y-91625500D01*
X156897872Y-91625499D01*
X156957483Y-91619091D01*
X157092331Y-91568796D01*
X157207546Y-91482546D01*
X157293796Y-91367331D01*
X157344091Y-91232483D01*
X157350500Y-91172873D01*
X157350499Y-89377128D01*
X157344091Y-89317517D01*
X157341081Y-89309448D01*
X157293797Y-89182671D01*
X157293793Y-89182664D01*
X157207547Y-89067455D01*
X157207544Y-89067452D01*
X157092335Y-88981206D01*
X157092328Y-88981202D01*
X156960917Y-88932189D01*
X156904983Y-88890318D01*
X156880566Y-88824853D01*
X156895418Y-88756580D01*
X156916563Y-88728332D01*
X157030104Y-88614792D01*
X157155051Y-88442816D01*
X157251557Y-88253412D01*
X157317246Y-88051243D01*
X157350500Y-87841287D01*
X157350500Y-87628713D01*
X157317246Y-87418757D01*
X157251557Y-87216588D01*
X157155051Y-87027184D01*
X157155049Y-87027181D01*
X157155048Y-87027179D01*
X157030109Y-86855213D01*
X156879786Y-86704890D01*
X156707820Y-86579951D01*
X156518414Y-86483444D01*
X156518413Y-86483443D01*
X156518412Y-86483443D01*
X156316243Y-86417754D01*
X156316241Y-86417753D01*
X156316240Y-86417753D01*
X156154957Y-86392208D01*
X156106287Y-86384500D01*
X155893713Y-86384500D01*
X155845042Y-86392208D01*
X155683760Y-86417753D01*
X155481585Y-86483444D01*
X155292179Y-86579951D01*
X155120213Y-86704890D01*
X154969890Y-86855213D01*
X154844948Y-87027184D01*
X154844947Y-87027185D01*
X154824765Y-87066795D01*
X154776791Y-87117591D01*
X154714281Y-87134500D01*
X144481069Y-87134500D01*
X144414030Y-87114815D01*
X144368275Y-87062011D01*
X144361853Y-87044612D01*
X144333909Y-86946951D01*
X144239698Y-86766593D01*
X144126983Y-86628359D01*
X144099875Y-86563965D01*
X144111884Y-86495135D01*
X144126981Y-86471642D01*
X144239698Y-86333407D01*
X144333909Y-86153049D01*
X144389886Y-85957418D01*
X144400500Y-85838037D01*
X144400499Y-84721964D01*
X144389886Y-84602582D01*
X144333909Y-84406951D01*
X144239698Y-84226593D01*
X144187684Y-84162803D01*
X144111109Y-84068890D01*
X143953409Y-83940304D01*
X143953410Y-83940304D01*
X143953407Y-83940302D01*
X143773049Y-83846091D01*
X143773048Y-83846090D01*
X143773045Y-83846089D01*
X143655829Y-83812550D01*
X143577418Y-83790114D01*
X143577415Y-83790113D01*
X143577413Y-83790113D01*
X143511102Y-83784217D01*
X143458037Y-83779500D01*
X143458032Y-83779500D01*
X141341971Y-83779500D01*
X141341965Y-83779500D01*
X141341964Y-83779501D01*
X141338834Y-83779779D01*
X141334471Y-83780167D01*
X141265953Y-83766491D01*
X141215706Y-83717942D01*
X141199500Y-83656653D01*
X141199500Y-78979945D01*
X141199500Y-78979943D01*
X141158577Y-78827216D01*
X141158577Y-78827215D01*
X141158577Y-78827214D01*
X141129639Y-78777095D01*
X141129637Y-78777092D01*
X141079520Y-78690284D01*
X140967716Y-78578480D01*
X140967715Y-78578479D01*
X140963385Y-78574149D01*
X140963374Y-78574139D01*
X134833757Y-72444522D01*
X134800272Y-72383199D01*
X134803507Y-72318523D01*
X134817246Y-72276243D01*
X134850500Y-72066287D01*
X134850500Y-71853713D01*
X134817246Y-71643757D01*
X134751557Y-71441588D01*
X134655051Y-71252184D01*
X134655049Y-71252181D01*
X134655048Y-71252179D01*
X134530109Y-71080213D01*
X134379786Y-70929890D01*
X134207820Y-70804951D01*
X134018414Y-70708444D01*
X134018413Y-70708443D01*
X134018412Y-70708443D01*
X133816243Y-70642754D01*
X133816241Y-70642753D01*
X133816240Y-70642753D01*
X133654957Y-70617208D01*
X133606287Y-70609500D01*
X133393713Y-70609500D01*
X133345042Y-70617208D01*
X133183760Y-70642753D01*
X132981585Y-70708444D01*
X132792179Y-70804951D01*
X132620213Y-70929890D01*
X132469890Y-71080213D01*
X132344951Y-71252179D01*
X132248444Y-71441585D01*
X132182753Y-71643760D01*
X132149500Y-71853713D01*
X132149500Y-72066286D01*
X132182753Y-72276240D01*
X132182754Y-72276244D01*
X132196491Y-72318523D01*
X132198486Y-72388365D01*
X132166241Y-72444521D01*
X119231286Y-85379478D01*
X119119481Y-85491282D01*
X119119479Y-85491285D01*
X119069361Y-85578094D01*
X119069359Y-85578096D01*
X119040425Y-85628209D01*
X119040424Y-85628210D01*
X119040423Y-85628215D01*
X118999499Y-85780943D01*
X118999499Y-85780945D01*
X118999499Y-85949046D01*
X118999500Y-85949059D01*
X118999500Y-87761414D01*
X118979815Y-87828453D01*
X118927011Y-87874208D01*
X118914505Y-87879120D01*
X118805666Y-87915186D01*
X118805663Y-87915187D01*
X118656342Y-88007289D01*
X118532289Y-88131342D01*
X118532288Y-88131344D01*
X118512620Y-88163232D01*
X118495741Y-88190597D01*
X118443793Y-88237321D01*
X118390202Y-88249500D01*
X115157532Y-88249500D01*
X115157516Y-88249499D01*
X115149920Y-88249499D01*
X114991806Y-88249499D01*
X114886079Y-88277829D01*
X114839077Y-88290423D01*
X114821592Y-88300519D01*
X114821589Y-88300520D01*
X114702153Y-88369475D01*
X114702145Y-88369481D01*
X112269416Y-90802210D01*
X112249157Y-90837301D01*
X112198589Y-90885516D01*
X112141772Y-90899300D01*
X112074941Y-90899300D01*
X112074934Y-90899301D01*
X112015327Y-90905708D01*
X111880482Y-90956002D01*
X111880475Y-90956006D01*
X111765266Y-91042252D01*
X111765263Y-91042255D01*
X111679017Y-91157464D01*
X111679013Y-91157471D01*
X111628719Y-91292317D01*
X111622312Y-91351916D01*
X111622311Y-91351935D01*
X111622311Y-92095043D01*
X111607145Y-92154467D01*
X111603703Y-92160769D01*
X111553408Y-92295617D01*
X111547001Y-92355216D01*
X111547000Y-92355235D01*
X106800000Y-92355235D01*
X106800000Y-69324000D01*
X106819685Y-69256961D01*
X106872489Y-69211206D01*
X106924000Y-69200000D01*
X163878060Y-69200000D01*
X163945099Y-69219685D01*
G37*
%TD.AperFunction*%
%TA.AperFunction,NonConductor*%
G36*
X133917071Y-86869973D02*
G01*
X133936630Y-86870253D01*
X133950040Y-86879144D01*
X133965543Y-86883457D01*
X133978561Y-86898054D01*
X133994863Y-86908863D01*
X134001855Y-86924173D01*
X134012047Y-86935602D01*
X134022473Y-86969321D01*
X134047829Y-87129410D01*
X134103787Y-87301636D01*
X134103788Y-87301639D01*
X134186006Y-87462997D01*
X134292441Y-87609494D01*
X134292445Y-87609499D01*
X134420500Y-87737554D01*
X134420505Y-87737558D01*
X134471808Y-87774831D01*
X134567006Y-87843996D01*
X134672484Y-87897740D01*
X134728360Y-87926211D01*
X134728363Y-87926212D01*
X134814476Y-87954191D01*
X134900591Y-87982171D01*
X134973639Y-87993740D01*
X135060678Y-88007527D01*
X135123813Y-88037456D01*
X135160744Y-88096768D01*
X135159746Y-88166631D01*
X135121136Y-88224863D01*
X135060678Y-88252473D01*
X134900589Y-88277829D01*
X134728363Y-88333787D01*
X134728360Y-88333788D01*
X134567002Y-88416006D01*
X134420505Y-88522441D01*
X134420500Y-88522445D01*
X134292445Y-88650500D01*
X134292441Y-88650505D01*
X134186006Y-88797002D01*
X134103788Y-88958360D01*
X134103787Y-88958363D01*
X134047829Y-89130589D01*
X134022473Y-89290678D01*
X133992544Y-89353813D01*
X133933232Y-89390744D01*
X133863369Y-89389746D01*
X133805137Y-89351136D01*
X133777527Y-89290678D01*
X133763740Y-89203639D01*
X133752171Y-89130591D01*
X133703633Y-88981203D01*
X133696212Y-88958363D01*
X133696211Y-88958360D01*
X133661405Y-88890051D01*
X133613996Y-88797006D01*
X133584625Y-88756580D01*
X133507558Y-88650505D01*
X133507554Y-88650500D01*
X133379499Y-88522445D01*
X133379494Y-88522441D01*
X133232997Y-88416006D01*
X133232996Y-88416005D01*
X133232994Y-88416004D01*
X133158478Y-88378036D01*
X133071639Y-88333788D01*
X133071636Y-88333787D01*
X132899410Y-88277829D01*
X132739321Y-88252473D01*
X132676186Y-88222544D01*
X132639255Y-88163232D01*
X132640253Y-88093370D01*
X132678863Y-88035137D01*
X132739321Y-88007527D01*
X132809425Y-87996422D01*
X132899409Y-87982171D01*
X133071639Y-87926211D01*
X133232994Y-87843996D01*
X133379501Y-87737553D01*
X133507553Y-87609501D01*
X133613996Y-87462994D01*
X133696211Y-87301639D01*
X133752171Y-87129409D01*
X133768363Y-87027179D01*
X133777527Y-86969321D01*
X133784418Y-86954782D01*
X133786481Y-86938824D01*
X133799077Y-86923860D01*
X133807456Y-86906186D01*
X133821116Y-86897679D01*
X133831478Y-86885372D01*
X133850162Y-86879594D01*
X133866768Y-86869255D01*
X133882857Y-86869484D01*
X133898229Y-86864732D01*
X133917071Y-86869973D01*
G37*
%TD.AperFunction*%
%TA.AperFunction,NonConductor*%
G36*
X124718834Y-82605154D02*
G01*
X124774767Y-82647026D01*
X124799184Y-82712490D01*
X124799500Y-82721336D01*
X124799500Y-83655500D01*
X124779815Y-83722539D01*
X124727011Y-83768294D01*
X124675500Y-83779500D01*
X124341971Y-83779500D01*
X124341965Y-83779500D01*
X124341964Y-83779501D01*
X124338834Y-83779779D01*
X124334471Y-83780167D01*
X124265953Y-83766491D01*
X124215706Y-83717942D01*
X124199500Y-83656653D01*
X124199500Y-83073336D01*
X124219185Y-83006297D01*
X124235815Y-82985659D01*
X124587819Y-82633654D01*
X124649142Y-82600170D01*
X124718834Y-82605154D01*
G37*
%TD.AperFunction*%
%TA.AperFunction,NonConductor*%
G36*
X135456703Y-74766384D02*
G01*
X135463181Y-74772416D01*
X139962181Y-79271416D01*
X139995666Y-79332739D01*
X139998500Y-79359097D01*
X139998500Y-86337003D01*
X139978815Y-86404042D01*
X139926011Y-86449797D01*
X139856853Y-86459741D01*
X139793297Y-86430716D01*
X139786819Y-86424684D01*
X134136819Y-80774684D01*
X134103334Y-80713361D01*
X134100500Y-80687003D01*
X134100500Y-78514499D01*
X134120185Y-78447460D01*
X134172989Y-78401705D01*
X134224500Y-78390499D01*
X134397871Y-78390499D01*
X134397872Y-78390499D01*
X134457483Y-78384091D01*
X134592331Y-78333796D01*
X134707546Y-78247546D01*
X134793796Y-78132331D01*
X134844091Y-77997483D01*
X134850500Y-77937873D01*
X134850499Y-76590095D01*
X134859143Y-76560655D01*
X134865667Y-76530669D01*
X134869421Y-76525653D01*
X134870184Y-76523057D01*
X134886813Y-76502420D01*
X135009506Y-76379728D01*
X135009511Y-76379724D01*
X135019714Y-76369520D01*
X135019716Y-76369520D01*
X135131520Y-76257716D01*
X135198255Y-76142127D01*
X135210577Y-76120785D01*
X135251501Y-75968057D01*
X135251501Y-75809942D01*
X135251501Y-75802347D01*
X135251500Y-75802329D01*
X135251500Y-74860097D01*
X135271185Y-74793058D01*
X135323989Y-74747303D01*
X135393147Y-74737359D01*
X135456703Y-74766384D01*
G37*
%TD.AperFunction*%
%TA.AperFunction,NonConductor*%
G36*
X122917834Y-83493915D02*
G01*
X122973767Y-83535787D01*
X122998184Y-83601251D01*
X122998500Y-83610097D01*
X122998500Y-86450902D01*
X122978815Y-86517941D01*
X122962181Y-86538583D01*
X121016527Y-88484236D01*
X120955204Y-88517721D01*
X120885512Y-88512737D01*
X120829579Y-88470865D01*
X120811141Y-88435561D01*
X120759814Y-88280666D01*
X120667712Y-88131344D01*
X120543656Y-88007288D01*
X120412210Y-87926212D01*
X120394336Y-87915187D01*
X120394335Y-87915186D01*
X120394334Y-87915186D01*
X120333301Y-87894961D01*
X120285495Y-87879120D01*
X120228050Y-87839347D01*
X120201228Y-87774831D01*
X120200500Y-87761414D01*
X120200500Y-86160097D01*
X120220185Y-86093058D01*
X120236819Y-86072416D01*
X122786819Y-83522416D01*
X122848142Y-83488931D01*
X122917834Y-83493915D01*
G37*
%TD.AperFunction*%
%TA.AperFunction,NonConductor*%
G36*
X154728883Y-88339787D02*
G01*
X154744088Y-88339136D01*
X154761726Y-88349431D01*
X154781320Y-88355185D01*
X154792216Y-88367228D01*
X154804430Y-88374358D01*
X154824765Y-88403205D01*
X154844947Y-88442814D01*
X154844948Y-88442815D01*
X154969890Y-88614786D01*
X155083430Y-88728326D01*
X155116915Y-88789649D01*
X155111931Y-88859341D01*
X155070059Y-88915274D01*
X155039083Y-88932189D01*
X154907669Y-88981203D01*
X154907664Y-88981206D01*
X154792455Y-89067452D01*
X154792452Y-89067455D01*
X154706206Y-89182664D01*
X154706202Y-89182671D01*
X154655908Y-89317517D01*
X154649501Y-89377116D01*
X154649501Y-89377123D01*
X154649500Y-89377135D01*
X154649500Y-89550500D01*
X154629815Y-89617539D01*
X154577011Y-89663294D01*
X154525500Y-89674500D01*
X144481069Y-89674500D01*
X144414030Y-89654815D01*
X144368275Y-89602011D01*
X144361853Y-89584612D01*
X144357288Y-89568657D01*
X144333909Y-89486951D01*
X144239698Y-89306593D01*
X144126983Y-89168359D01*
X144099875Y-89103965D01*
X144111884Y-89035135D01*
X144126981Y-89011642D01*
X144239698Y-88873407D01*
X144333909Y-88693049D01*
X144389886Y-88497418D01*
X144394233Y-88448518D01*
X144419777Y-88383487D01*
X144476425Y-88342587D01*
X144517746Y-88335500D01*
X154714281Y-88335500D01*
X154728883Y-88339787D01*
G37*
%TD.AperFunction*%
%TA.AperFunction,NonConductor*%
G36*
X118457241Y-89470185D02*
G01*
X118495739Y-89509401D01*
X118532288Y-89568656D01*
X118532289Y-89568657D01*
X118656346Y-89692714D01*
X118659182Y-89694463D01*
X118660717Y-89696170D01*
X118662011Y-89697193D01*
X118661836Y-89697414D01*
X118705905Y-89746411D01*
X118717126Y-89815374D01*
X118689282Y-89879456D01*
X118659182Y-89905537D01*
X118656346Y-89907285D01*
X118532289Y-90031342D01*
X118440187Y-90180663D01*
X118440186Y-90180666D01*
X118385001Y-90347203D01*
X118385001Y-90347204D01*
X118385000Y-90347204D01*
X118374500Y-90449983D01*
X118374500Y-90449996D01*
X118374501Y-91053164D01*
X118373739Y-91053164D01*
X118358257Y-91117937D01*
X118307853Y-91166323D01*
X118250661Y-91180300D01*
X115947361Y-91180300D01*
X115947357Y-91180299D01*
X115789243Y-91180299D01*
X115789239Y-91180300D01*
X114400146Y-91180300D01*
X114333107Y-91160615D01*
X114300880Y-91130611D01*
X114234736Y-91042255D01*
X114234733Y-91042252D01*
X114119524Y-90956006D01*
X114119518Y-90956003D01*
X114077846Y-90940460D01*
X114021912Y-90898588D01*
X113997496Y-90833123D01*
X114012348Y-90764851D01*
X114033495Y-90736601D01*
X115283279Y-89486819D01*
X115344602Y-89453334D01*
X115370960Y-89450500D01*
X118390202Y-89450500D01*
X118457241Y-89470185D01*
G37*
%TD.AperFunction*%
%TA.AperFunction,NonConductor*%
G36*
X123318834Y-87982913D02*
G01*
X123374767Y-88024785D01*
X123399184Y-88090249D01*
X123399500Y-88099095D01*
X123399500Y-88378028D01*
X123399501Y-88378034D01*
X123410113Y-88497415D01*
X123466089Y-88693045D01*
X123466090Y-88693048D01*
X123466091Y-88693049D01*
X123560302Y-88873407D01*
X123574091Y-88890318D01*
X123673015Y-89011639D01*
X123700124Y-89076036D01*
X123688115Y-89144865D01*
X123673015Y-89168361D01*
X123661349Y-89182669D01*
X123560302Y-89306593D01*
X123523464Y-89377116D01*
X123466089Y-89486954D01*
X123410114Y-89682583D01*
X123410113Y-89682586D01*
X123399500Y-89801966D01*
X123399500Y-90918028D01*
X123399501Y-90918034D01*
X123410113Y-91037415D01*
X123466089Y-91233045D01*
X123466090Y-91233048D01*
X123466091Y-91233049D01*
X123560302Y-91413407D01*
X123608963Y-91473085D01*
X123673015Y-91551639D01*
X123700124Y-91616036D01*
X123688115Y-91684865D01*
X123673015Y-91708361D01*
X123614057Y-91780668D01*
X123560302Y-91846593D01*
X123559983Y-91847204D01*
X123466089Y-92026954D01*
X123410114Y-92222583D01*
X123410113Y-92222586D01*
X123399500Y-92341966D01*
X123399500Y-93458028D01*
X123399501Y-93458034D01*
X123410113Y-93577415D01*
X123466089Y-93773045D01*
X123466090Y-93773048D01*
X123466091Y-93773049D01*
X123560302Y-93953407D01*
X123560304Y-93953409D01*
X123673015Y-94091639D01*
X123700124Y-94156036D01*
X123688115Y-94224865D01*
X123673015Y-94248361D01*
X123560304Y-94386590D01*
X123466089Y-94566954D01*
X123442880Y-94648070D01*
X123413825Y-94749612D01*
X123376459Y-94808649D01*
X123313105Y-94838113D01*
X123294610Y-94839500D01*
X121652597Y-94839500D01*
X121585558Y-94819815D01*
X121564916Y-94803181D01*
X120986818Y-94225083D01*
X120953333Y-94163760D01*
X120950499Y-94137411D01*
X120950499Y-93524992D01*
X120947201Y-93492710D01*
X120939999Y-93422203D01*
X120939998Y-93422200D01*
X120926807Y-93382393D01*
X120884814Y-93255666D01*
X120792712Y-93106344D01*
X120668656Y-92982288D01*
X120519334Y-92890186D01*
X120352797Y-92835001D01*
X120352795Y-92835000D01*
X120250010Y-92824500D01*
X119249998Y-92824500D01*
X119249980Y-92824501D01*
X119147203Y-92835000D01*
X119147200Y-92835001D01*
X118980668Y-92890185D01*
X118980663Y-92890187D01*
X118831342Y-92982289D01*
X118707289Y-93106342D01*
X118615187Y-93255663D01*
X118615186Y-93255666D01*
X118577745Y-93368657D01*
X118573193Y-93382393D01*
X118533420Y-93439838D01*
X118468904Y-93466661D01*
X118400129Y-93454346D01*
X118367806Y-93431070D01*
X117529716Y-92592981D01*
X117496231Y-92531658D01*
X117501215Y-92461967D01*
X117543087Y-92406033D01*
X117608551Y-92381616D01*
X117617397Y-92381300D01*
X118482531Y-92381300D01*
X118482547Y-92381301D01*
X118490143Y-92381301D01*
X118648254Y-92381301D01*
X118648257Y-92381301D01*
X118800985Y-92340377D01*
X118878511Y-92295617D01*
X118937916Y-92261320D01*
X119049720Y-92149516D01*
X119049720Y-92149514D01*
X119059924Y-92139311D01*
X119059928Y-92139306D01*
X119412416Y-91786818D01*
X119473739Y-91753333D01*
X119500097Y-91750499D01*
X120125002Y-91750499D01*
X120125008Y-91750499D01*
X120227797Y-91739999D01*
X120394334Y-91684814D01*
X120543656Y-91592712D01*
X120667712Y-91468656D01*
X120759814Y-91319334D01*
X120814999Y-91152797D01*
X120825500Y-91050009D01*
X120825499Y-90449992D01*
X120824419Y-90439420D01*
X120837188Y-90370728D01*
X120860093Y-90339140D01*
X123187821Y-88011412D01*
X123249142Y-87977929D01*
X123318834Y-87982913D01*
G37*
%TD.AperFunction*%
%TA.AperFunction,NonConductor*%
G36*
X121103271Y-95991576D02*
G01*
X121117456Y-95998227D01*
X121120713Y-95999576D01*
X121120715Y-95999577D01*
X121273442Y-96040500D01*
X121273443Y-96040500D01*
X123294610Y-96040500D01*
X123361649Y-96060185D01*
X123407404Y-96112989D01*
X123413823Y-96130382D01*
X123433928Y-96200644D01*
X123466089Y-96313045D01*
X123466090Y-96313048D01*
X123466091Y-96313049D01*
X123560302Y-96493407D01*
X123580120Y-96517712D01*
X123673015Y-96631639D01*
X123700124Y-96696036D01*
X123688115Y-96764865D01*
X123673015Y-96788361D01*
X123561575Y-96925032D01*
X123560302Y-96926593D01*
X123529724Y-96985132D01*
X123466089Y-97106954D01*
X123430496Y-97231347D01*
X123413825Y-97289612D01*
X123376459Y-97348649D01*
X123313105Y-97378113D01*
X123294610Y-97379500D01*
X121681669Y-97379500D01*
X121681653Y-97379499D01*
X121674057Y-97379499D01*
X121515943Y-97379499D01*
X121408587Y-97408265D01*
X121363210Y-97420424D01*
X121363209Y-97420425D01*
X121313096Y-97449359D01*
X121313095Y-97449360D01*
X121284158Y-97466066D01*
X121226286Y-97499478D01*
X121132194Y-97593570D01*
X121070870Y-97627054D01*
X121001179Y-97622070D01*
X120945246Y-97580198D01*
X120926807Y-97544892D01*
X120895151Y-97449361D01*
X120884814Y-97418166D01*
X120792712Y-97268844D01*
X120668656Y-97144788D01*
X120519334Y-97052686D01*
X120435495Y-97024904D01*
X120415463Y-97011034D01*
X120393297Y-97000912D01*
X120387248Y-96991499D01*
X120378051Y-96985132D01*
X120368697Y-96962633D01*
X120355523Y-96942134D01*
X120353064Y-96925032D01*
X120351228Y-96920616D01*
X120350500Y-96907199D01*
X120350500Y-96755300D01*
X120370185Y-96688261D01*
X120422989Y-96642506D01*
X120435482Y-96637599D01*
X120519334Y-96609814D01*
X120668656Y-96517712D01*
X120792712Y-96393656D01*
X120884814Y-96244334D01*
X120939999Y-96077797D01*
X120939999Y-96077795D01*
X120942128Y-96071371D01*
X120944436Y-96072135D01*
X120972361Y-96020552D01*
X121033562Y-95986844D01*
X121103271Y-95991576D01*
G37*
%TD.AperFunction*%
%TA.AperFunction,NonConductor*%
G36*
X115635242Y-92400985D02*
G01*
X115655884Y-92417619D01*
X118513181Y-95274917D01*
X118546666Y-95336240D01*
X118549500Y-95362598D01*
X118549500Y-95975001D01*
X118549501Y-95975019D01*
X118560000Y-96077796D01*
X118560001Y-96077799D01*
X118571662Y-96112989D01*
X118615186Y-96244334D01*
X118707288Y-96393656D01*
X118831344Y-96517712D01*
X118980666Y-96609814D01*
X119064505Y-96637595D01*
X119084535Y-96651463D01*
X119106703Y-96661587D01*
X119112751Y-96670998D01*
X119121948Y-96677366D01*
X119131302Y-96699864D01*
X119144477Y-96720365D01*
X119146935Y-96737465D01*
X119148772Y-96741882D01*
X119149500Y-96755300D01*
X119149500Y-96907199D01*
X119129815Y-96974238D01*
X119077011Y-97019993D01*
X119064507Y-97024903D01*
X119031962Y-97035688D01*
X118980668Y-97052685D01*
X118980663Y-97052687D01*
X118831342Y-97144789D01*
X118707289Y-97268842D01*
X118615187Y-97418163D01*
X118615186Y-97418166D01*
X118573192Y-97544894D01*
X118533419Y-97602339D01*
X118468903Y-97629161D01*
X118400127Y-97616846D01*
X118367805Y-97593570D01*
X114632588Y-93858353D01*
X114624721Y-93850486D01*
X114624720Y-93850484D01*
X114512916Y-93738680D01*
X114501856Y-93732294D01*
X114490928Y-93721757D01*
X114480840Y-93704057D01*
X114466781Y-93689311D01*
X114462589Y-93672033D01*
X114456332Y-93661053D01*
X114456979Y-93648902D01*
X114452999Y-93632499D01*
X114452999Y-92505299D01*
X114472684Y-92438261D01*
X114525488Y-92392506D01*
X114576999Y-92381300D01*
X115568203Y-92381300D01*
X115635242Y-92400985D01*
G37*
%TD.AperFunction*%
%TA.AperFunction,NonConductor*%
G36*
X114176043Y-95100278D02*
G01*
X118513181Y-99437416D01*
X118546666Y-99498739D01*
X118549500Y-99525097D01*
X118549500Y-99980165D01*
X118529815Y-100047204D01*
X118477011Y-100092959D01*
X118407853Y-100102903D01*
X118344297Y-100073878D01*
X118337819Y-100067846D01*
X113582352Y-95312380D01*
X113548867Y-95251057D01*
X113553851Y-95181365D01*
X113595723Y-95125432D01*
X113661187Y-95101015D01*
X113670012Y-95100699D01*
X113925061Y-95100699D01*
X113984672Y-95094291D01*
X114045030Y-95071778D01*
X114114720Y-95066794D01*
X114176043Y-95100278D01*
G37*
%TD.AperFunction*%
%TA.AperFunction,NonConductor*%
G36*
X123361649Y-98600185D02*
G01*
X123407404Y-98652989D01*
X123413823Y-98670382D01*
X123433928Y-98740644D01*
X123466089Y-98853045D01*
X123466090Y-98853048D01*
X123466091Y-98853049D01*
X123560302Y-99033407D01*
X123560304Y-99033409D01*
X123673015Y-99171639D01*
X123700124Y-99236036D01*
X123688115Y-99304865D01*
X123673015Y-99328361D01*
X123584093Y-99437416D01*
X123560302Y-99466593D01*
X123529742Y-99525097D01*
X123466089Y-99646954D01*
X123410114Y-99842583D01*
X123410113Y-99842586D01*
X123399500Y-99961966D01*
X123399500Y-101078027D01*
X123399501Y-101078033D01*
X123399501Y-101078036D01*
X123400166Y-101085520D01*
X123386498Y-101154036D01*
X123337954Y-101204288D01*
X123276654Y-101220500D01*
X119541835Y-101220500D01*
X119512394Y-101211855D01*
X119482408Y-101205332D01*
X119477392Y-101201577D01*
X119474796Y-101200815D01*
X119454154Y-101184181D01*
X119319653Y-101049680D01*
X119286168Y-100988357D01*
X119291152Y-100918665D01*
X119333024Y-100862732D01*
X119398488Y-100838315D01*
X119407310Y-100837999D01*
X120250008Y-100837999D01*
X120250016Y-100837998D01*
X120250019Y-100837998D01*
X120306302Y-100832248D01*
X120352797Y-100827499D01*
X120519334Y-100772314D01*
X120668656Y-100680212D01*
X120792712Y-100556156D01*
X120884814Y-100406834D01*
X120939999Y-100240297D01*
X120950500Y-100137509D01*
X120950499Y-99525096D01*
X120970183Y-99458058D01*
X120986818Y-99437416D01*
X121807416Y-98616819D01*
X121868739Y-98583334D01*
X121895097Y-98580500D01*
X123294610Y-98580500D01*
X123361649Y-98600185D01*
G37*
%TD.AperFunction*%
M02*
